<svg width="36" height="33" viewBox="0 0 36 33" fill="none" xmlns="http://www.w3.org/2000/svg">
<path fill-rule="evenodd" clip-rule="evenodd" d="M27.3114 5.65027C26.1304 5.65027 25.1739 6.52738 25.1739 7.60848C25.1739 8.691 26.1304 9.56811 27.3114 9.56811C28.4909 9.56811 29.4473 8.691 29.4473 7.60848C29.4473 6.52738 28.4909 5.65027 27.3114 5.65027ZM17.8057 21.7626C14.528 21.7626 11.8705 19.3268 11.8705 16.3213C11.8705 13.3171 14.528 10.8813 17.8057 10.8813C21.0833 10.8813 23.741 13.3171 23.741 16.3213C23.741 19.3268 21.0833 21.7626 17.8057 21.7626ZM17.8057 7.93977C12.7557 7.93977 8.6623 11.693 8.6623 16.3213C8.6623 20.9502 12.7557 24.7034 17.8057 24.7034C22.8555 24.7034 26.9491 20.9502 26.9491 16.3213C26.9491 11.693 22.8555 7.93977 17.8057 7.93977ZM17.8057 0C12.9702 0 12.3645 0.0183043 10.4648 0.0977893C3.99765 0.369292 0.404348 3.6583 0.107173 9.59201C0.0202155 11.3336 0 11.8886 0 16.3213C0 20.7547 0.0202155 21.3103 0.107173 23.0512C0.404348 28.9793 3.9919 32.2733 10.4648 32.5461C12.3645 32.625 12.9702 32.6432 17.8057 32.6432C22.641 32.6432 23.2482 32.625 25.1479 32.5461C31.6078 32.274 35.2116 28.9856 35.5042 23.0512C35.591 21.3103 35.6114 20.7547 35.6114 16.3213C35.6114 11.8886 35.591 11.3336 35.5042 9.59201C35.2128 3.67027 31.6208 0.370004 25.1479 0.0977893C23.2482 0.0183043 22.641 0 17.8057 0Z" fill="white"/>
</svg>
