<svg width="47" height="33" viewBox="0 0 47 33" fill="none" xmlns="http://www.w3.org/2000/svg">
<path fill-rule="evenodd" clip-rule="evenodd" d="M41.5044 22.6114C38.2688 19.0874 38.1171 19.0042 40.9038 14.7621C44.3633 9.49746 48.8845 2.75167 44.8843 2.75167C44.1008 2.75167 44.6594 2.75167 37.2437 2.75167C35.7614 2.75167 35.6544 3.7308 35.128 5.18988C33.2192 10.4723 29.5901 17.3169 28.2107 16.2716C26.7687 15.1788 27.4292 10.8556 27.5397 4.42765C27.5689 2.73036 27.5614 1.56565 25.35 0.962684C24.143 0.634184 22.9689 0.50048 21.8791 0.50048C17.5164 0.50048 14.5086 2.64576 16.2177 3.01976C19.2321 3.6796 18.9434 11.3327 18.2396 14.637C17.016 20.3908 12.4142 10.0791 10.4961 4.94529C10.0341 3.70948 9.89353 2.75167 8.2416 2.75167C7.33638 2.75167 3.338 2.75167 1.9953 2.75167C1.05166 2.75167 0.485796 3.11217 0.485796 3.91353C0.485796 5.2681 6.1669 19.0419 11.5887 25.9086C16.8782 32.6067 22.1059 32.0052 25.7436 32.0052C26.912 32.0052 27.3908 31.09 27.3758 29.9445C27.3158 25.6291 28.7468 23.3061 31.3273 26.3352C34.1834 29.685 34.7747 32.0052 38.2407 32.0052C39.5601 32.0052 43.1021 32.0052 44.3821 32.0052C45.9329 32.0052 46.5429 31.4192 46.5429 30.4999C46.5429 28.5573 43.816 25.1278 41.5044 22.6114Z" fill="white"/>
</svg>
