<?xml version="1.0" standalone="no"?>
<!DOCTYPE svg PUBLIC "-//W3C//DTD SVG 1.1//EN" "http://www.w3.org/Graphics/SVG/1.1/DTD/svg11.dtd" >
<svg xmlns="http://www.w3.org/2000/svg" xmlns:xlink="http://www.w3.org/1999/xlink" version="1.1">
<metadata>
Created by FontForge 20170731 at Sat Mar 18 02:58:12 2017
 By Aleksey,,,
Copyright 1996 DoubleAlex Team. All rights reserved.
</metadata>
<defs>
<font id="CopperplateCyrillic-Bold" horiz-adv-x="665" vert-adv-y="1000" >
  <font-face 
    font-family="Copperplate Cyrillic"
    font-weight="700"
    font-stretch="normal"
    units-per-em="1000"
    panose-1="0 0 0 0 0 0 0 0 0 0"
    ascent="750"
    descent="-250"
    x-height="585"
    cap-height="700"
    bbox="-75 -248 1660 917"
    underline-thickness="50"
    underline-position="-198"
    unicode-range="U+0020-2265"
  />
<missing-glyph horiz-adv-x="1000" 
 />
    <glyph glyph-name=".notdef" horiz-adv-x="1000" 
 />
    <glyph glyph-name=".null" horiz-adv-x="0" vert-adv-y="0" 
 />
    <glyph glyph-name="nonmarkingreturn" horiz-adv-x="333" 
 />
    <glyph glyph-name="space" unicode=" " horiz-adv-x="332" 
 />
    <glyph glyph-name="exclam" unicode="!" horiz-adv-x="443" 
d="M263 237v-19h-77v19q8 1 8 18q0 14 -18 167t-27 218q-3 22 -10 30.5t-22 10.5v19h208v-19q-19 -5 -24 -41q-9 -68 -27.5 -219.5t-18.5 -165.5q0 -16 8 -18zM142 74q0 35 24.5 59t58.5 24q33 0 57.5 -24t24.5 -59q0 -34 -24 -57t-58 -23t-58.5 23t-24.5 57z" />
    <glyph glyph-name="quotedbl" unicode="&#x22;" horiz-adv-x="443" 
d="M375 600l-23 -271q-4 -42 -27 -42t-27 42l-23 271q-10 108 50 108t50 -108zM168 600l-23 -271q-4 -42 -27 -42q-20 0 -28 42l-22 271q-10 108 50 108t50 -108z" />
    <glyph glyph-name="numbersign" unicode="#" 
d="M488 419l-20 -138h91v-75h-101l-30 -206h-81l29 206h-117l-29 -206h-85l29 206h-98v75h109l20 138h-99v74h109l30 207h85l-29 -207h115l30 207h82l-29 -207h90v-74h-101zM270 281h117l20 138h-117z" />
    <glyph glyph-name="dollar" unicode="$" 
d="M364 0v-136h-63v136q-55 2 -102.5 20t-76 35t-37.5 17q-11 0 -17 -3t-9.5 -7.5t-5.5 -5.5l-13 5l72 144l10 -6q0 -39 69 -70t110 -31v213q-44 6 -82.5 19t-72.5 35.5t-54 59t-20 82.5q0 89 68 144t161 57v93h63v-93q44 -6 90.5 -21t74.5 -26.5t31 -11.5q8 0 25 11l8 -6
l-74 -133l-11 6q-4 37 -39 54t-105 25v-183q240 -48 240 -217q0 -91 -68 -148.5t-172 -57.5zM301 438v168q-53 -2 -89 -24t-36 -55q0 -41 30.5 -60t94.5 -29zM364 297v-199q49 0 88.5 28t39.5 72q0 73 -128 99z" />
    <glyph glyph-name="percent" unicode="%" horiz-adv-x="1182" 
d="M654 142q0 98 67.5 164t165.5 66t165.5 -66t67.5 -164t-67.5 -163t-165.5 -65t-165.5 65t-67.5 163zM761 142q0 -55 34.5 -89t91.5 -34t91.5 34t34.5 89t-34.5 89.5t-91.5 34.5t-91.5 -34.5t-34.5 -89.5zM61 541q0 98 67.5 164t165.5 66t165.5 -66t67.5 -164t-67.5 -164
t-165.5 -66t-165.5 66t-67.5 164zM168 541q0 -55 34.5 -89t91.5 -34t91.5 34t34.5 89t-34.5 89.5t-91.5 34.5t-91.5 -34.5t-34.5 -89.5zM283 -86l524 857h85l-524 -857h-85z" />
    <glyph glyph-name="ampersand" unicode="&#x26;" horiz-adv-x="739" 
d="M638 511h19v-197h-19q-3 18 -14 18q-18 0 -47 -57t-29 -77q0 -11 28.5 -42t45.5 -31q14 0 19 27h19v-158q-54 0 -102 23t-78 64q-71 -87 -183 -87q-100 0 -169 59.5t-69 159.5q0 66 38 118t101 72q-64 55 -64 134t53 125t132 46q77 0 131 -48t54 -124q0 -45 -25.5 -81
t-60.5 -48q45 -28 78 -96q32 107 112 165q3 2 8 6t8 6t6.5 6t5 8t2.5 9zM192 219q0 -49 31.5 -85t79.5 -36q49 0 80.5 36t31.5 85t-31.5 85t-80.5 36q-48 0 -79.5 -36t-31.5 -85zM246 533q0 -33 21 -57t52 -24q32 0 52.5 23.5t20.5 57.5t-20.5 57.5t-52.5 23.5
q-31 0 -52 -24t-21 -57z" />
    <glyph glyph-name="quotesingle" unicode="'" horiz-adv-x="295" 
d="M198 600l-22 -271q0 -1 -1 -6l-1.5 -7.5t-2 -7.5t-3 -8t-4.5 -6.5t-6.5 -5t-8.5 -1.5q-24 0 -28 42l-23 271q-10 108 51 108q59 0 49 -108z" />
    <glyph glyph-name="parenleft" unicode="(" horiz-adv-x="517" 
d="M399 708l4 -24q-93 -61 -130.5 -158t-37.5 -253t37 -252.5t131 -156.5l-4 -24q-128 50 -207 165.5t-79 267.5t79 268t207 167z" />
    <glyph glyph-name="parenright" unicode=")" horiz-adv-x="517" 
d="M118 -160l-4 24q94 60 131 156.5t37 252.5t-37.5 253t-130.5 158l4 24q128 -51 207 -167t79 -268t-78.5 -267.5t-207.5 -165.5z" />
    <glyph glyph-name="asterisk" unicode="*" 
d="M301 471v10l-192 14l37 119l165 -103l6 5l-48 184h127l-45 -184l5 -5l163 103l37 -119l-189 -14v-10l145 -120l-102 -72l-72 173h-11l-72 -173l-99 72z" />
    <glyph glyph-name="plus" unicode="+" horiz-adv-x="798" 
d="M106 246v93h246v246h94v-246h246v-93h-246v-246h-94v246h-246z" />
    <glyph glyph-name="comma" unicode="," horiz-adv-x="332" 
d="M59 -190v43q55 20 95 58.5t40 88.5q-4 0 -12 -0.5t-13 -0.5q-44 0 -69.5 21.5t-25.5 56.5q0 45 25 70.5t70 25.5q43 0 74 -36t31 -86q0 -86 -62 -148.5t-153 -92.5z" />
    <glyph glyph-name="hyphen" unicode="-" horiz-adv-x="443" 
d="M64 348h314v-111h-314v111z" />
    <glyph glyph-name="period" unicode="." horiz-adv-x="332" 
d="M76 82q0 39 26 65t64 26t64.5 -26t26.5 -65q0 -38 -26 -63t-65 -25q-38 0 -64 25t-26 63z" />
    <glyph glyph-name="slash" unicode="/" horiz-adv-x="370" 
d="M309 708h94l-340 -714h-93z" />
    <glyph glyph-name="zero" unicode="0" 
d="M180 350q0 -123 41 -184.5t111 -61.5q71 0 112 61.5t41 184.5t-41 184.5t-112 61.5q-70 0 -111 -61.5t-41 -184.5zM47 350q0 161 76.5 259.5t208.5 98.5t209 -98.5t77 -259.5t-76.5 -258.5t-209.5 -97.5q-132 0 -208.5 97.5t-76.5 258.5z" />
    <glyph glyph-name="one" unicode="1" 
d="M269 681v19h175v-19q-26 0 -26 -35v-593q0 -34 26 -34v-19h-191v19q32 0 32 34v447q-59 -12 -62 -45h-18v167h18q0 -18 31 -18q16 0 26 13.5t10 35.5q0 23 -21 28z" />
    <glyph glyph-name="two" unicode="2" 
d="M168 463l-11 -8l-109 112l11 10q4 -1 10 -1q7 0 16 8.5t25 25t31 27.5q48 38 96 54.5t114 16.5q97 0 157.5 -50.5t60.5 -140.5q0 -45 -22 -86t-55.5 -71.5t-77 -62.5t-83 -58.5t-76.5 -60t-56 -66.5h349q17 0 24.5 7.5t10.5 25.5h18v-167h-18q-5 22 -35 22h-444
q-30 0 -35 -22h-18q2 69 24.5 127t56.5 97.5t74.5 73.5t81 62t74 54.5t54 59t20.5 69.5q0 35 -27.5 55t-74.5 20q-64 0 -116.5 -41.5t-52.5 -75.5q0 -10 3 -16z" />
    <glyph glyph-name="three" unicode="3" 
d="M56 56l-19 10l77 149l11 -5q0 -48 61.5 -82.5t114.5 -34.5q65 0 112 32t47 86q0 52 -42 85.5t-103 33.5q-51 0 -54 -37h-19v167h19q2 -37 56 -37q58 0 86 26.5t28 70.5q0 86 -108 86q-61 0 -103.5 -30t-42.5 -55q3 -11 7 -17l-11 -13l-114 115l10 11q1 0 5 -1.5t6 -1.5
q8 0 29 14.5t47 32.5t73.5 32.5t102.5 14.5q97 0 164.5 -50.5t67.5 -126.5q0 -52 -26 -88.5t-76 -68.5q61 -17 96 -63t35 -110q0 -89 -76.5 -148t-207.5 -59q-92 0 -164 35q-16 8 -31.5 17.5t-23.5 14.5t-10 5q-3 0 -12.5 -5t-11.5 -5z" />
    <glyph glyph-name="four" unicode="4" 
d="M391 561l-234 -335h237v335h-3zM551 19v-19h-189v19q32 0 32 34v72h-304q-16 0 -23.5 -6t-10.5 -23h-19v130l274 392q32 46 32 51q0 11 -21 12v19h229v-19q-18 0 -26.5 -8t-8.5 -27v-420h37q17 0 24.5 6.5t10.5 25.5h18v-162h-18q-3 17 -10.5 23t-24.5 6h-37v-72
q0 -34 35 -34z" />
    <glyph glyph-name="five" unicode="5" 
d="M513 588h-298v-145q59 33 143 33q110 0 173.5 -69t63.5 -165q0 -112 -73.5 -180t-192.5 -68q-93 0 -165 38q-14 7 -32.5 18.5t-28.5 16.5t-17 5q-9 0 -23 -6l-16 14l91 143l16 -8q-19 -46 32.5 -78.5t130.5 -32.5q67 0 108.5 41t41.5 105q0 59 -41 96t-101 37
q-45 0 -81.5 -21.5t-25.5 -50.5l-11 -5l-141 109v11q27 -11 27 17v203q0 35 -27 35v19h447q29 0 35 24h19v-160h-19q-6 24 -35 24z" />
    <glyph glyph-name="six" unicode="6" 
d="M572 668l11 -8l-86 -141l-16 9q2 29 -34 53.5t-89 24.5q-77 0 -121 -65t-43 -162q77 86 173 86q103 0 164.5 -61t61.5 -183q0 -90 -68.5 -158.5t-182.5 -68.5q-94 0 -158 47.5t-91 119t-27 160.5q0 109 31 194t100.5 139t168.5 54q55 0 121 -24t68 -24q9 0 17 8zM338 98
q54 0 90.5 38t36.5 93t-36.5 92.5t-90.5 37.5t-91 -37.5t-37 -92.5t37 -93t91 -38z" />
    <glyph glyph-name="seven" unicode="7" 
d="M117 700h415q29 0 35 24h18v-115l-227 -492q-1 -2 -12 -23t-16 -34t-5 -20q0 -19 26 -21v-19h-202v19q12 1 20 7t11.5 12t9.5 19l254 531h-327q-17 0 -24.5 -7t-10.5 -24h-18v167h18q6 -24 35 -24z" />
    <glyph glyph-name="eight" unicode="8" 
d="M56 199q0 126 117 179q-41 16 -68.5 58t-27.5 85q0 78 67 132.5t183 54.5q125 0 194.5 -52t69.5 -128q0 -49 -27.5 -92t-72.5 -61q57 -22 87.5 -67t30.5 -107q0 -94 -71.5 -150.5t-201.5 -56.5q-128 0 -204 60.5t-76 144.5zM189 214q0 -52 41.5 -81t101.5 -29
q61 0 102.5 29t41.5 81t-42 81.5t-102 29.5t-101.5 -29.5t-41.5 -81.5zM210 516q0 -42 31 -66t93 -24t93 24t31 66q0 90 -124 90t-124 -90z" />
    <glyph glyph-name="nine" unicode="9" 
d="M93 32l-11 8l86 141l16 -9q-2 -30 34 -54.5t89 -24.5q77 0 121 65.5t43 162.5q-77 -87 -173 -87q-102 0 -164 61.5t-62 183.5q0 91 69 160t182 69q71 0 125.5 -27.5t86 -74t47.5 -104t16 -123.5q0 -168 -76 -276.5t-223 -108.5q-55 0 -121 23t-68 23q-9 0 -17 -8z
M327 601q-54 0 -91 -37.5t-37 -92.5t37 -93t91 -38t91 38t37 93t-37 92.5t-91 37.5z" />
    <glyph glyph-name="colon" unicode=":" horiz-adv-x="332" 
d="M76 82q0 39 26 65t64 26t64.5 -26t26.5 -65q0 -38 -26 -63t-65 -25q-38 0 -64 25t-26 63zM76 444q0 39 26 65t64 26t64.5 -26t26.5 -65t-26 -64.5t-65 -25.5q-38 0 -64 25.5t-26 64.5z" />
    <glyph glyph-name="semicolon" unicode=";" horiz-adv-x="332" 
d="M59 -190v43q55 20 95 58.5t40 88.5q-4 0 -12 -0.5t-13 -0.5q-44 0 -69.5 21.5t-25.5 56.5q0 45 25 70.5t70 25.5q43 0 74 -36t31 -86q0 -86 -62 -148.5t-153 -92.5zM72 444q0 39 26 65t64 26t64.5 -26t26.5 -65t-26 -64.5t-65 -25.5q-38 0 -64 25.5t-26 64.5z" />
    <glyph glyph-name="less" unicode="&#x3c;" horiz-adv-x="798" 
d="M692 500l-467 -207l467 -208v-91l-586 259v79l586 261v-93z" />
    <glyph glyph-name="equal" unicode="=" horiz-adv-x="798" 
d="M106 362v93h586v-93h-586zM106 130v93h586v-93h-586z" />
    <glyph glyph-name="greater" unicode="&#x3e;" horiz-adv-x="798" 
d="M106 85l467 208l-467 207v93l586 -261v-79l-586 -259v91z" />
    <glyph glyph-name="question" unicode="?" horiz-adv-x="591" 
d="M383 242v-19h-146v19q16 3 20.5 15t11.5 65q4 30 22 61.5t37 53.5t34.5 48t15.5 48q0 34 -20.5 53.5t-60.5 19.5q-36 0 -62 -13.5t-26 -41.5q0 -8 6 -14l-10 -10l-109 103l10 11q9 -3 11 -3q6 0 22.5 11t36.5 24t56.5 24t77.5 11q77 0 131 -48t54 -119q0 -43 -21 -83.5
t-46.5 -66t-46.5 -58t-21 -60.5q0 -16 5 -22t18 -9zM229 74q0 35 24.5 59t57.5 24q34 0 58.5 -24t24.5 -59q0 -34 -24.5 -57t-58.5 -23t-58 23t-24 57z" />
    <glyph glyph-name="at" unicode="@" horiz-adv-x="798" 
d="M507 414q0 69 -42 69q-39 0 -82 -55t-43 -130q0 -40 15 -63.5t37 -23.5q39 0 72 52.5t43 150.5zM528 487l11 34h75l-62 -252q-5 -23 1 -47t30 -24q44 0 78.5 67t34.5 137q0 93 -77 170t-200 77q-50 0 -96 -19t-85 -57t-62.5 -102.5t-23.5 -147.5q0 -111 81.5 -189
t194.5 -78q112 0 206 48l11 -49q-115 -61 -215 -61q-78 0 -144.5 22t-110.5 57.5t-75.5 80.5t-45.5 91t-14 89q0 164 111 269t268 105q144 0 242 -87.5t98 -218.5q0 -55 -21.5 -110t-67 -95.5t-103.5 -40.5q-46 0 -70.5 27.5t-23.5 45.5h-2q-9 -19 -43.5 -45t-75.5 -28
q-36 -1 -67.5 28t-31.5 99q0 34 13 75.5t36.5 82t65 68t90.5 27.5q9 0 16.5 -1.5t12.5 -3t10.5 -5.5t8.5 -6.5t7 -7.5t5.5 -7.5t5 -9t4.5 -8.5z" />
    <glyph glyph-name="A" unicode="A" 
d="M326 551h-3l-86 -280h177zM192 19v-19h-176v19q17 1 28 32l194 569q12 36 12 45q0 12 -29 16v19h222v-19q-28 -1 -28 -23q0 -6 16 -54l190 -553q6 -18 11.5 -24.5t16.5 -7.5v-19h-181v19q24 3 24 14q0 8 -5 23l-43 122h-239l-37 -110q-6 -13 -6 -24q0 -24 30 -25z" />
    <glyph glyph-name="B" unicode="B" horiz-adv-x="739" 
d="M424 0h-355v19q23 3 30 10t7 24v593q0 18 -7 25t-30 10v19h330q109 0 173 -56.5t64 -130.5q0 -52 -32 -95t-84 -56v-3q140 -32 140 -173q0 -80 -64 -133t-172 -53zM374 311h-135v-199h135q153 0 153 99q0 100 -153 100zM379 588h-140v-165h140q124 0 124 82q0 43 -30 63
t-94 20z" />
    <glyph glyph-name="C" unicode="C" 
d="M608 653l6 -7l-87 -159l-12 5q1 4 1 13q0 36 -40.5 63.5t-92.5 27.5q-205 0 -205 -253q0 -106 55.5 -172.5t144.5 -66.5q54 0 97.5 29t43.5 63q0 15 -6 27l16 6l112 -145l-11 -12q-10 13 -22 13q-9 0 -27.5 -14t-41 -31.5t-69.5 -31.5t-106 -14q-146 0 -232.5 100.5
t-86.5 248.5q0 175 98.5 270t236.5 95q77 0 137 -34q12 -6 26.5 -15.5t22.5 -13.5t13 -4q11 0 29 12z" />
    <glyph glyph-name="D" unicode="D" horiz-adv-x="739" 
d="M101 53v593q0 17 -6.5 24.5t-25.5 10.5v19h293q107 0 181 -47.5t107.5 -125t33.5 -177.5q0 -175 -89 -262.5t-260 -87.5h-266v19q19 3 25.5 10t6.5 24zM311 588h-77v-476h77q134 0 187 51.5t53 186.5t-53 186.5t-187 51.5z" />
    <glyph glyph-name="E" unicode="E" 
d="M407 303h-170v-191h306q23 0 32.5 4.5t12.5 19.5h18v-158h-18q-3 14 -12 18t-33 4h-482v19q26 3 34.5 10t8.5 24v593q0 18 -8.5 25t-36.5 10v19h465q24 0 33 4.5t12 19.5h19v-157h-19q-3 13 -12 17t-33 4h-287v-173h170q24 0 33 4.5t12 19.5h19v-157h-19q-3 13 -12 17
t-33 4z" />
    <glyph glyph-name="F" unicode="F" horiz-adv-x="591" 
d="M267 19v-19h-222v19q26 3 34.5 10t8.5 24v593q0 18 -8.5 25t-36.5 10v19h466q21 0 30 5t12 19h18v-160h-18q-3 14 -12 19t-30 5h-288v-173h181q23 0 32.5 5t12.5 22h18v-161h-18q-3 13 -12.5 17.5t-32.5 4.5h-181v-250q0 -17 8.5 -24t37.5 -10z" />
    <glyph glyph-name="G" unicode="G" horiz-adv-x="739" 
d="M535 145v113h-101q-25 0 -34 -6.5t-12 -29.5h-18v180l18 1q9 -44 93 -44h221v-19q-21 0 -27.5 -6t-6.5 -28v-153q0 -21 3 -26t14 -7v-11q-49 -56 -124 -85.5t-155 -29.5q-150 0 -247.5 98t-97.5 248q0 156 96.5 262t250.5 106q85 0 161 -35q14 -7 31 -16.5t26.5 -14
t15.5 -4.5q8 0 31 14l11 -8l-115 -163l-13 6q5 9 5 30q0 29 -41 54t-113 25q-101 0 -157 -67.5t-56 -180.5q0 -68 20.5 -118t54.5 -76t71 -38t79 -12q68 0 116 41z" />
    <glyph glyph-name="H" unicode="H" horiz-adv-x="739" 
d="M513 53v258h-287v-258q0 -17 7 -24t28 -10v-19h-202v19q20 3 27 10t7 24v593q0 17 -7 24.5t-27 10.5v19h202v-19q-21 -3 -28 -10.5t-7 -24.5v-223h287v223q0 18 -6.5 25t-27.5 10v19h202v-19q-21 -3 -28 -10.5t-7 -24.5v-593q0 -17 7 -24t28 -10v-19h-202v19
q21 3 27.5 10t6.5 24z" />
    <glyph glyph-name="I" unicode="I" horiz-adv-x="370" 
d="M297 19v-19h-224v19q28 3 36.5 10t8.5 24v593q0 18 -8.5 25t-36.5 10v19h224v-19q-28 -3 -37 -10t-9 -25v-593q0 -17 9 -24t37 -10z" />
    <glyph glyph-name="J" unicode="J" horiz-adv-x="517" 
d="M17 32l-16 8l64 159l12 -3q-8 -36 38 -64t90 -28q88 0 88 82v460q0 17 -6.5 24.5t-24.5 10.5v19h194v-19q-18 -3 -24 -10.5t-6 -24.5v-476q0 -88 -55 -132t-149 -44q-67 0 -121 23q-11 5 -24 12t-20.5 10.5t-13.5 3.5q-17 0 -26 -11z" />
    <glyph glyph-name="K" unicode="K" 
d="M258 19v-19h-199v19q18 3 24.5 10t6.5 24v593q0 18 -6.5 25t-27.5 10v19h199v-19q-19 -3 -25.5 -10.5t-6.5 -24.5v-231h3l210 227q16 18 16 22q0 9 -14 17v19h208v-19q-30 -4 -44 -20l-219 -242l185 -291q5 -8 13.5 -21t12.5 -19.5t10.5 -16t10 -14.5t9 -12t9.5 -10.5
t9 -7t10 -5.5t10 -3v-19h-203v19q14 2 14 18q0 8 -11 25l-171 267l-68 -71v-205q0 -17 7 -24t28 -10z" />
    <glyph glyph-name="L" unicode="L" horiz-adv-x="591" 
d="M89 53v593q0 18 -8 25t-32 10v19h218v-19q-28 -3 -36.5 -10t-8.5 -25v-534h293q24 0 33 6t12 26h19v-166h-19q-3 14 -12 18t-33 4h-463v19q22 3 29.5 10t7.5 24z" />
    <glyph glyph-name="M" unicode="M" horiz-adv-x="880" 
d="M250 19v-19h-181v19q27 2 27 26v609q0 26 -27 27v19h236v-19q-20 -7 -20 -20q0 -6 8 -26l147 -339h3l152 341q7 19 7 23q0 15 -21 21v19h233v-19q-29 -1 -29 -27v-609q0 -25 32 -26v-19h-187v19q32 1 32 26v482h-2l-214 -467h-20l-205 467h-3v-482q0 -25 32 -26z" />
    <glyph glyph-name="N" unicode="N" horiz-adv-x="739" 
d="M251 19v-19h-181v19q18 3 24.5 10t6.5 24v593q0 17 -5.5 24.5t-19.5 10.5v19h219v-19q-24 -1 -24 -12q0 -5 18 -37l226 -403h2v417q0 17 -6 24.5t-23 10.5v19h181v-19q-17 -3 -23 -10.5t-6 -24.5v-593q0 -19 5 -25t19 -9v-19h-195v19q26 4 26 18q0 4 -17 36l-252 440h-3
v-460q0 -16 6 -23.5t22 -10.5z" />
    <glyph glyph-name="O" unicode="O" horiz-adv-x="739" 
d="M51 350q0 155 85.5 256.5t233.5 101.5t233.5 -101.5t85.5 -256.5t-85.5 -255.5t-233.5 -100.5q-149 0 -234 100.5t-85 255.5zM184 350q0 -118 48.5 -182t137.5 -64t137.5 64t48.5 182t-48.5 182t-137.5 64t-137.5 -64t-48.5 -182z" />
    <glyph glyph-name="P" unicode="P" 
d="M358 588h-127v-186h127q70 0 100.5 21t30.5 72t-30.5 72t-100.5 21zM266 19v-19h-202v19q21 3 27.5 10t6.5 24v593q0 18 -6.5 25t-27.5 10v19h318q120 0 180 -58t60 -147t-60 -147t-180 -58h-151v-237q0 -17 7 -24t28 -10z" />
    <glyph glyph-name="Q" unicode="Q" horiz-adv-x="739" 
d="M669 5l11 -11l-128 -109l-16 11q13 8 13 18q-1 12 -72 95q-49 -15 -107 -15q-149 0 -234 100.5t-85 255.5t85.5 256.5t233.5 101.5t233.5 -101.5t85.5 -256.5q0 -189 -118 -289q45 -62 70 -62q17 0 28 6zM306 213l4 32q41 -3 91.5 -27.5t94.5 -63.5q60 60 60 196
q0 118 -48.5 182t-137.5 64t-137.5 -64t-48.5 -182t48.5 -182t137.5 -64q21 0 38 4q-26 42 -48 65t-54 40z" />
    <glyph glyph-name="R" unicode="R" horiz-adv-x="739" 
d="M275 19v-19h-194v19q17 3 23 10t6 24v593q0 18 -6.5 25t-25.5 10v19h333q109 0 171.5 -52.5t62.5 -142.5q0 -78 -38 -129.5t-112 -68.5l103 -202q5 -9 11.5 -23t9.5 -20t8 -14.5t7.5 -12t7 -8t9 -6t10.5 -2.5v-19h-197v19q27 2 27 17q0 9 -16 41l-111 213h-121v-237
q0 -17 6.5 -24t25.5 -10zM396 588h-153v-186h153q116 0 116 93t-116 93z" />
    <glyph glyph-name="S" unicode="S" 
d="M57 32l-13 8l80 165l18 -8q-2 -10 -2 -13q0 -33 61 -56.5t124 -23.5q163 0 163 103q0 30 -23 49.5t-60 30.5t-82 20.5t-90 22.5t-82 32.5t-60 56t-23 86.5q0 86 64 144.5t187 58.5q86 0 160 -28q13 -5 30.5 -13t26.5 -11.5t15 -3.5q17 0 30 16l11 -6l-99 -165l-18 8
q0 1 0.5 10t0.5 13q0 27 -46.5 52.5t-122.5 25.5q-54 0 -80 -23t-26 -59q0 -28 23 -47t60 -29t82 -19t90 -23.5t82 -35.5t60 -61t23 -96q0 -89 -78.5 -154t-224.5 -65q-80 0 -157 27q-16 6 -34 14.5t-28 12t-19 3.5q-7 0 -23 -19z" />
    <glyph glyph-name="T" unicode="T" 
d="M431 19v-19h-192v19q27 5 27 34v535h-160q-24 0 -33 -6t-12 -25h-18v167h18q3 -15 12.5 -19.5t32.5 -4.5h453q23 0 32.5 4.5t12.5 19.5h18v-167h-18q-3 19 -12 25t-33 6h-160v-535q0 -17 6.5 -24t25.5 -10z" />
    <glyph glyph-name="U" unicode="U" horiz-adv-x="739" 
d="M57 681v19h202v-19q-19 -3 -25.5 -10.5t-6.5 -24.5v-393q0 -69 38.5 -109t110.5 -40t110.5 40t38.5 109v393q0 18 -6.5 25t-25.5 10v19h189v-19q-21 -3 -27.5 -10t-6.5 -25v-391q0 -261 -277 -261t-277 261v391q0 18 -7 25t-30 10z" />
    <glyph glyph-name="V" unicode="V" 
d="M447 19v-19h-221v19q14 0 23 6t9 15q0 3 -12 39l-189 549q-17 49 -33 53v19h187v-19q-27 -5 -27 -23q0 -8 9 -35l146 -442h3l141 447q9 29 9 36q0 10 -30 17v19h179v-19q-11 -4 -18.5 -13.5t-10 -16.5t-8.5 -25l-180 -555q-6 -17 -6 -32q0 -20 29 -20z" />
    <glyph glyph-name="W" unicode="W" horiz-adv-x="960" 
d="M384 19v-19h-165v19q5 0 10 4.5t5 9.5t-23 79l-160 530q-10 35 -28 39v19h175v-19q-12 -2 -16.5 -6t-4.5 -13q0 -11 10 -45l115 -402h3l108 407q9 34 9 39q0 16 -27 20v19h173v-19q-10 -3 -14.5 -5.5t-8.5 -8t-4 -14.5q0 -8 8 -36l116 -420h3l113 419q10 38 10 41
q0 18 -26 24v19h173v-19q-23 -7 -34 -44l-154 -517q-17 -57 -17 -81q0 -17 13 -20v-19h-170v19q19 3 19 21q0 2 -13 54l-101 383h-2l-102 -389q-2 -7 -5.5 -19.5t-5.5 -20.5t-2 -9q0 -6 5.5 -12.5t14.5 -7.5z" />
    <glyph glyph-name="X" unicode="X" 
d="M237 19v-19h-209v19q26 2 38 22l190 313l-183 298q-16 27 -45 29v19h221v-19q-27 -1 -27 -17q0 -7 10 -25l97 -159l102 169q7 11 7 16q0 14 -32 16v19h204v-19q-24 -5 -38 -28l-172 -288l205 -336q7 -10 32 -10v-19h-218v19q27 0 27 20q0 3 -11 23l-110 180l-104 -171
q-12 -20 -12 -32q0 -18 28 -20z" />
    <glyph glyph-name="Y" unicode="Y" 
d="M431 19v-19h-197v19q19 3 25.5 10t6.5 24v237l-206 363q-13 23 -33 28v19h207v-19q-29 -1 -29 -19q0 -6 16 -33l121 -207l118 208q13 24 13 31q0 10 -6 14t-25 6v19h196v-19q-20 -6 -34 -31l-205 -360v-237q0 -17 6.5 -24t25.5 -10z" />
    <glyph glyph-name="Z" unicode="Z" 
d="M543 0h-484v24l339 564h-270q-24 0 -33.5 -6t-12.5 -27h-18v171h18q3 -16 12.5 -21t33.5 -5h473v-19l-344 -569h286q24 0 33 6t12 26h18v-166h-18q-3 14 -12 18t-33 4z" />
    <glyph glyph-name="bracketleft" unicode="[" horiz-adv-x="517" 
d="M440 -104v-48h-327v852h327v-48h-205v-756h205z" />
    <glyph glyph-name="backslash" unicode="\" horiz-adv-x="370" 
d="M447 -6h-93l-429 714h91z" />
    <glyph glyph-name="bracketright" unicode="]" horiz-adv-x="517" 
d="M77 652v48h327v-852h-327v48h205v756h-205z" />
    <glyph glyph-name="asciicircum" unicode="^" horiz-adv-x="798" 
d="M532 335l-133 279l-133 -279h-85l181 365h74l181 -365h-85z" />
    <glyph glyph-name="underscore" unicode="_" 
d="M0 -98h665v-66h-665v66z" />
    <glyph glyph-name="grave" unicode="`" horiz-adv-x="370" 
d="M273 657h-91l-173 186h147z" />
    <glyph glyph-name="a" unicode="a" horiz-adv-x="591" 
d="M164 19v-19h-136v19q11 5 16 22l164 477q9 25 9 30q0 10 -11 19v18h165v-18q-9 -7 -9 -16q0 -3 10 -33l159 -453q12 -37 22 -43q5 -2 10 -3v-19h-164v19q16 7 16 21q0 9 -4 21l-28 96h-198l-28 -92q-4 -12 -4 -24q0 -19 11 -22zM360 231l-75 235h-2l-76 -235h153z" />
    <glyph glyph-name="b" unicode="b" 
d="M106 53v479q0 35 -21 35v18h271q108 0 159.5 -47.5t51.5 -111.5q0 -87 -94 -124q104 -35 104 -149q0 -68 -50.5 -110.5t-156.5 -42.5h-290v19q26 0 26 34zM327 261h-104v-173h104q138 0 138 86q0 87 -138 87zM335 497h-112v-149h112q70 0 95 19t25 56t-25 55.5t-95 18.5z
" />
    <glyph glyph-name="c" unicode="c" horiz-adv-x="591" 
d="M528 545l9 -5l-81 -136l-13 7l3 15q0 33 -39.5 53.5t-81.5 20.5q-73 0 -122.5 -57t-49.5 -161q0 -87 44 -142t133 -55q39 0 78 20t39 48q0 10 -4 17l11 7l87 -109l-6 -9q-8 2 -15 2t-22.5 -10.5t-34 -23t-56.5 -23t-85 -10.5q-124 0 -202.5 83.5t-78.5 215.5
q0 131 78.5 215.5t202.5 84.5q64 0 118 -28q9 -4 24.5 -12.5t24 -12t14.5 -3.5q16 0 25 8z" />
    <glyph glyph-name="d" unicode="d" 
d="M319 492h-104v-399h104q88 0 132 45.5t44 154.5t-44 154t-132 45zM98 53v479q0 35 -24 35v18h258q134 0 204 -75t70 -217t-70 -217.5t-204 -75.5h-258v19q24 0 24 34z" />
    <glyph glyph-name="e" unicode="e" horiz-adv-x="591" 
d="M104 53v479q0 35 -24 35v18h388q29 0 35 24h18v-151h-18q-3 18 -10.5 26t-24.5 8h-247v-144h149q17 0 24 6.5t10 23.5h19v-152h-19q-3 17 -10 23t-24 6h-149v-162h247q29 0 35 33h18v-148h-18q-5 22 -35 22h-388v19q24 0 24 34z" />
    <glyph glyph-name="f" unicode="f" horiz-adv-x="517" 
d="M217 19v-19h-157v19q3 0 6.5 3t7 11.5t3.5 19.5v479q0 17 -6.5 26t-13.5 9v18h363q29 0 35 24h18v-141h-18q-7 24 -35 24h-226v-144h136q27 0 34 24h19v-141h-19q-5 24 -34 24h-136v-202q0 -34 23 -34z" />
    <glyph glyph-name="g" unicode="g" 
d="M559 559l13 -11l-85 -141l-16 7q2 12 2 18q0 24 -39 46t-96 22q-80 0 -126.5 -64.5t-46.5 -149.5q0 -84 51.5 -142.5t134.5 -58.5q56 0 112 36v94h-97q-22 0 -28 -18h-19v128h19q6 -22 28 -22h219v-18q-18 -5 -18 -22v-142q0 -14 17 -17v-11q-32 -38 -97.5 -68.5
t-152.5 -30.5q-122 0 -201.5 87t-79.5 210q0 131 77.5 216.5t205.5 85.5q69 0 137 -28q12 -5 25 -11.5t20.5 -10t12.5 -3.5q6 0 15.5 6.5t12.5 12.5z" />
    <glyph glyph-name="h" unicode="h" 
d="M233 19v-19h-161v19q6 0 12 8.5t6 25.5v479q0 17 -6 26t-12 9v18h157v-18q-9 0 -15.5 -9t-6.5 -26v-186h245v186q0 17 -6.5 26t-14.5 9v18h160v-18q-9 0 -15.5 -9t-6.5 -26v-479q0 -34 24 -34v-19h-159v19q6 0 12 8.5t6 25.5v200h-245v-200q0 -34 26 -34z" />
    <glyph glyph-name="i" unicode="i" horiz-adv-x="370" 
d="M271 19v-19h-173v19q28 0 28 34v479q0 35 -28 35v18h173v-18q-28 0 -28 -35v-479q0 -34 28 -34z" />
    <glyph glyph-name="j" unicode="j" horiz-adv-x="443" 
d="M199 567v18h173v-18q-29 0 -29 -35v-380q0 -75 -45.5 -116.5t-124.5 -41.5q-47 0 -93 21q-10 4 -20 10t-15.5 9t-7.5 3q-9 0 -24 -13l-10 5l45 139l16 -6q4 -33 28 -55t57 -22q34 0 55.5 15.5t21.5 45.5v386q0 35 -27 35z" />
    <glyph glyph-name="k" unicode="k" horiz-adv-x="591" 
d="M239 19v-19h-167v19q26 0 26 34v479q0 35 -26 35v18h165v-18q-9 0 -15.5 -9t-6.5 -26v-183h2l167 176l9 9l7.5 7.5t5 5.5t3.5 5.5t1 4.5q0 7 -16 10v18h175v-18q-18 -4 -33 -19l-200 -198l185 -278q28 -42 56 -53v-19h-175v19q21 0 21 10q0 9 -19 39l-134 214l-55 -53
v-176q0 -34 24 -34z" />
    <glyph glyph-name="l" unicode="l" horiz-adv-x="517" 
d="M446 0h-385v19q35 0 35 34v479q0 35 -35 35v18h182v-18q-30 0 -30 -35v-439h233q28 0 34 33h19v-148h-19q-6 22 -34 22z" />
    <glyph glyph-name="m" unicode="m" horiz-adv-x="796" 
d="M229 19v-19h-157v19q22 0 22 34v479q0 35 -27 35v18h221v-18q-19 -5 -19 -18t18 -54l113 -263h3l116 263q18 39 18 54q0 13 -19 18v18h210v-18q-26 0 -26 -35v-479q0 -34 26 -34v-19h-163v19q26 0 26 34v375h-3l-179 -388h-22l-179 388h-3v-375q0 -34 24 -34z" />
    <glyph glyph-name="n" unicode="n" 
d="M230 19v-19h-162v19q29 0 29 34v479q0 35 -29 35v18h194v-18q-19 -6 -19 -19q-1 -7 30 -57l191 -305h3v346q0 35 -27 35v18h157v-18q-26 0 -26 -35v-479q0 -34 26 -34v-19h-167v19q13 2 13 14q0 9 -15 32l-225 343h-2v-355q0 -34 29 -34z" />
    <glyph glyph-name="o" unicode="o" 
d="M52 293q0 131 78.5 215.5t201.5 84.5q124 0 202.5 -84.5t78.5 -215.5q0 -132 -78.5 -215.5t-202.5 -83.5q-123 0 -201.5 83.5t-78.5 215.5zM164 293q0 -96 48 -152t120 -56q73 0 121 56t48 152q0 95 -48 151t-121 56q-72 0 -120 -56t-48 -151z" />
    <glyph glyph-name="p" unicode="p" horiz-adv-x="591" 
d="M299 497h-86v-175h86q71 0 100 20t29 68q0 47 -29 67t-100 20zM237 19v-19h-163v19q22 0 22 34v479q0 35 -24 35v18h251q217 0 217 -171q0 -82 -54 -131t-163 -49h-110v-181q0 -34 24 -34z" />
    <glyph glyph-name="q" unicode="q" 
d="M572 -3l8 -11l-99 -96l-13 11q5 8 5 21q0 9 -7.5 19t-26 28.5t-31.5 33.5q-36 -9 -76 -9q-123 0 -201.5 83.5t-78.5 215.5q0 131 78.5 215.5t201.5 84.5q124 0 202.5 -84.5t78.5 -215.5q0 -81 -31.5 -147t-88.5 -105q37 -50 60 -50q4 0 10.5 3t8.5 3zM271 185l16 21
q84 -16 144 -86q70 60 70 173q0 95 -48 151t-121 56q-72 0 -120 -56t-48 -151q0 -96 48 -152t120 -56q14 0 20 1q-13 25 -20 37t-23 29.5t-38 32.5z" />
    <glyph glyph-name="r" unicode="r" 
d="M245 19v-19h-165v19q24 0 24 34v479q0 35 -24 35v18h303q102 0 152 -48.5t50 -132.5q0 -57 -43 -106t-103 -55l110 -184q19 -32 27 -36q4 -3 9 -4v-19h-159v19q14 0 14 10q0 13 -10 30l-104 172h-105v-178q0 -34 24 -34zM339 497h-118v-178h118q74 0 104 20.5t30 68.5
t-30 68.5t-104 20.5z" />
    <glyph glyph-name="s" unicode="s" horiz-adv-x="591" 
d="M511 556l10 -5l-69 -131l-13 6q0 34 -45.5 56.5t-115.5 22.5q-54 0 -83 -20.5t-29 -56.5q0 -24 19.5 -40t50.5 -25t68.5 -16.5t74.5 -20t68 -31t50.5 -54t19.5 -84.5q0 -72 -61 -117.5t-150 -45.5q-49 0 -91 9t-64.5 19.5t-42 19.5t-27.5 9q-7 0 -13 -6.5t-7 -7.5l-16 6
l72 143l19 -10q-1 -2 -2.5 -5.5t-2.5 -6.5t-1 -6q0 -30 56 -54t119 -24q58 0 88.5 23t30.5 65q0 30 -36 46t-87.5 26t-103.5 25t-88 54.5t-36 103.5q0 77 56.5 123.5t159.5 46.5q41 0 87.5 -12t77.5 -24t34 -12q5 0 23 11z" />
    <glyph glyph-name="t" unicode="t" horiz-adv-x="517" 
d="M48 468h-19v141h19q7 -24 34 -24h352q27 0 34 24h19v-144h-19q-7 27 -34 27h-117v-439q0 -17 6 -25.5t12 -8.5v-19h-157v19q21 0 21 34v439h-117q-27 0 -34 -24z" />
    <glyph glyph-name="u" unicode="u" 
d="M70 567v18h163v-18q-22 0 -22 -35v-335q0 -52 32 -82t91 -30t90.5 29.5t31.5 82.5v335q0 35 -21 35v18h160v-18q-22 0 -22 -35v-322q0 -216 -239 -216q-240 0 -240 216v322q0 35 -24 35z" />
    <glyph glyph-name="v" unicode="v" horiz-adv-x="591" 
d="M24 567v18h175v-18q-23 -5 -23 -20q0 -4 2 -11t5.5 -16.5t4.5 -12.5l111 -358h3l113 351q13 41 13 48q0 9 -4.5 13t-16.5 6v18h160v-18q-16 -1 -24.5 -10.5t-14.5 -27.5l-148 -443q-16 -48 -16 -50q0 -16 14 -17v-19h-165v19q10 1 10 18q0 8 -13 49l-149 445
q-6 19 -14 26t-23 10z" />
    <glyph glyph-name="w" unicode="w" horiz-adv-x="813" 
d="M20 567v18h165v-18q-24 0 -24 -22q0 -14 11 -57l82 -315h3l81 340q6 24 6 39q0 11 -21 15v18h160v-20q-20 0 -20 -14q0 -4 10 -48l80 -330h3l93 322q9 33 9 49q0 20 -21 23v18h154v-18q-16 -2 -22 -9.5t-14 -32.5l-138 -443q-12 -37 -12 -46q0 -14 21 -17v-19h-159v19
q21 2 21 13q0 6 -11 48l-81 327h-2l-77 -325q-7 -29 -7 -42q0 -18 21 -21v-19h-159v19q16 3 16 17q0 2 -18 70l-118 433q-3 9 -11.5 17.5t-20.5 10.5z" />
    <glyph glyph-name="x" unicode="x" horiz-adv-x="591" 
d="M201 19v-19h-162v19q18 0 30 18l169 264l-146 230q-20 32 -40 36v18h178v-18q-19 -4 -19 -15q0 -9 15 -35l76 -125l70 119q12 22 12 37t-26 19v18h181v-18q-8 -1 -14.5 -5.5t-8.5 -7t-8 -12t-7 -10.5l-142 -225l148 -234q2 -4 8.5 -14.5t9 -14.5t7.5 -10.5t10 -9.5t10 -5
v-19h-176v19q19 2 19 13t-16 38l-86 139l-92 -144q-16 -26 -16 -32q0 -12 16 -14z" />
    <glyph glyph-name="y" unicode="y" horiz-adv-x="591" 
d="M376 19v-19h-154v19q8 0 14.5 8.5t6.5 25.5v221l-150 251q-16 27 -24 34t-30 8v18h178v-18q-19 -4 -19 -15q0 -6 13 -35l94 -158l85 156q16 32 16 41q0 8 -19 11v18h165v-18q-19 -1 -27 -9t-24 -35l-141 -246v-224q0 -11 3.5 -19.5t6.5 -11.5t6 -3z" />
    <glyph glyph-name="z" unicode="z" horiz-adv-x="591" 
d="M473 0h-409v27l291 465h-238q-29 0 -35 -33h-18v150h18q7 -24 35 -24h410v-18l-296 -474h242q27 0 35 27h19v-142h-19q-7 22 -35 22z" />
    <glyph glyph-name="braceleft" unicode="{" horiz-adv-x="517" 
d="M166 -9v165q0 52 -20.5 77.5t-80.5 39.5q60 13 80.5 38.5t20.5 78.5v166q0 86 49.5 115t163.5 29v-19q-48 -12 -69 -42t-21 -84v-149q0 -60 -21.5 -90t-86.5 -42v-3q65 -12 86.5 -42t21.5 -89v-147q0 -54 20.5 -84.5t69.5 -42.5v-18q-114 0 -163.5 28.5t-49.5 114.5z" />
    <glyph glyph-name="bar" unicode="|" horiz-adv-x="295" 
d="M194 700v-700h-93v700h93z" />
    <glyph glyph-name="braceright" unicode="}" horiz-adv-x="517" 
d="M351 556v-166q0 -52 21 -78t80 -39q-59 -14 -80 -39.5t-21 -77.5v-165q0 -86 -49.5 -114.5t-163.5 -28.5v18q49 12 70 42t21 85v147q0 59 21.5 89t85.5 42v3q-64 12 -85.5 42t-21.5 90v149q0 54 -21 84t-70 42v19q114 0 163.5 -29t49.5 -115z" />
    <glyph glyph-name="asciitilde" unicode="~" horiz-adv-x="798" 
d="M593 368l37 -62q-24 -29 -35.5 -42t-37 -27.5t-54.5 -14.5q-33 0 -103 33q-70 34 -113 34q-52 0 -82 -72l-37 64q45 82 125 82q38 0 114 -33t97 -33q19 0 36.5 12.5t26.5 23.5t26 35z" />
    <glyph glyph-name="uni00A0" unicode="&#xa0;" horiz-adv-x="332" 
 />
    <glyph glyph-name="sterling" unicode="&#xa3;" 
d="M48 -6v120q92 35 92 168q0 10 -3 49h-89v61h81q-2 13 -6 36t-6.5 41.5t-2.5 35.5q0 102 64.5 152.5t165.5 50.5t168.5 -54.5t67.5 -153.5h-117q0 54 -32.5 80t-87.5 26q-46 0 -76 -27t-30 -72q0 -18 2.5 -35t9.5 -45.5t8 -34.5h102v-61h-97q0 -125 -92 -214l3 -3
q59 22 116 22q23 0 79.5 -11t69.5 -11q30 0 44.5 20.5t17.5 72.5h117v-21q0 -95 -54.5 -143.5t-140.5 -48.5q-32 0 -114.5 20.5t-119.5 20.5q-34 0 -77 -20.5t-63 -20.5z" />
    <glyph glyph-name="currency" unicode="&#xa4;" 
d="M156 116l-66 -65l-57 57l67 66q-60 60 -60 176t60 175l-67 67l57 57l66 -65q67 58 176 58q108 0 177 -58l66 65l57 -57l-67 -67q60 -59 60 -175t-60 -176l67 -66l-57 -57l-66 65q-68 -59 -177 -59t-176 59zM145 350q0 -78 55.5 -135.5t131.5 -57.5t132 57.5t56 135.5
t-56 135.5t-132 57.5t-131.5 -57.5t-55.5 -135.5z" />
    <glyph glyph-name="brokenbar" unicode="&#xa6;" horiz-adv-x="295" 
d="M101 0v221h93v-221h-93zM101 430v221h93v-221h-93z" />
    <glyph glyph-name="section" unicode="&#xa7;" 
d="M541 629l-74 -72q-27 33 -66 52t-79 19q-35 0 -57 -18t-22 -50q0 -27 35.5 -47t86 -35.5t101 -35.5t86 -59t35.5 -94q0 -109 -129 -135q25 -18 38.5 -29.5t27 -37.5t13.5 -58q0 -68 -58 -104.5t-139 -36.5q-131 0 -236 87l72 57q77 -65 164 -65q86 0 86 69q0 20 -26 37
t-64.5 28.5t-83.5 29.5t-83.5 38.5t-64.5 57.5t-26 84q0 54 38.5 91t93.5 42v3q-32 12 -52.5 45t-20.5 69q0 68 51 107.5t130 39.5q64 0 124 -22t99 -57zM164 340q0 -15 7 -27.5t15 -20.5t29 -19t33.5 -16.5t44.5 -18.5q90 -36 127 -36t59 15t22 41q0 56 -117 100
q-98 38 -151 38q-33 0 -51 -15t-18 -41z" />
    <glyph glyph-name="copyright" unicode="&#xa9;" horiz-adv-x="798" 
d="M399 -6q-150 0 -250 102t-100 252q0 153 100 256.5t250 103.5t250 -103.5t100 -256.5q0 -151 -100 -252.5t-250 -101.5zM399 48q116 0 194.5 88t78.5 212q0 127 -78 215.5t-195 88.5q-116 0 -194.5 -89.5t-78.5 -214.5q0 -124 78.5 -212t194.5 -88zM549 271h22l-16 -75
q-3 -13 -30 -22q-51 -18 -106 -18q-102 0 -161 51.5t-59 152.5q0 35 12 68.5t37 64t71.5 49t107.5 18.5q52 0 105 -19q24 -8 24 -21v-72h-24q-24 88 -105 88q-58 0 -86.5 -45.5t-29.5 -124.5q-3 -186 117 -186q81 0 121 91z" />
    <glyph glyph-name="guillemotleft" unicode="&#xab;" 
d="M359 98h-117l-157 195l157 194h117l-160 -194zM580 98h-117l-157 195l157 194h117l-160 -194z" />
    <glyph glyph-name="logicalnot" unicode="&#xac;" horiz-adv-x="798" 
d="M692 455v-325h-94v232h-492v93h586z" />
    <glyph glyph-name="uni00AD" unicode="&#xad;" horiz-adv-x="443" 
d="M64 348h314v-111h-314v111z" />
    <glyph glyph-name="registered" unicode="&#xae;" horiz-adv-x="798" 
d="M231 529v19h199q49 0 81 -25t32 -73q0 -36 -21.5 -65t-57.5 -39l59 -84q31 -45 66 -84v-12h-85q-14 0 -29.5 23.5t-39 69.5t-41.5 73h-32v-99q0 -28 5.5 -34.5t39.5 -8.5v-24h-176v24q33 2 39.5 9t6.5 34v254q0 27 -6.5 34t-39.5 8zM395 524h-33v-168h32q58 0 58 90
q0 78 -57 78zM399 -6q-150 0 -250 102t-100 252q0 153 100 256.5t250 103.5t250 -103.5t100 -256.5q0 -151 -100 -252.5t-250 -101.5zM399 48q116 0 194.5 88t78.5 212q0 127 -78 215.5t-195 88.5q-116 0 -194.5 -89.5t-78.5 -214.5q0 -124 78.5 -212t194.5 -88z" />
    <glyph glyph-name="degree" unicode="&#xb0;" horiz-adv-x="532" 
d="M145 517q0 -51 35.5 -88.5t85.5 -37.5q49 0 85 37.5t36 88.5t-36 89t-85 38q-50 0 -85.5 -38t-35.5 -89zM76 517q0 80 55 135.5t135 55.5t135 -55.5t55 -135.5q0 -79 -55 -134.5t-135 -55.5t-135 55.5t-55 134.5z" />
    <glyph glyph-name="plusminus" unicode="&#xb1;" horiz-adv-x="798" 
d="M106 313v93h246v179h94v-179h246v-93h-246v-180h-94v180h-246zM692 93v-93h-586v93h586z" />
    <glyph glyph-name="mu" unicode="&#xb5;" 
d="M435 567v18h160v-18q-22 0 -22 -35v-322q0 -216 -239 -216q-76 0 -123 23v-212q0 -34 22 -34v-19h-163v19q24 0 24 34v727q0 35 -24 35v18h163v-18q-22 0 -22 -35v-335q0 -52 32 -82t91 -30t90.5 29.5t31.5 82.5v335q0 35 -21 35z" />
    <glyph glyph-name="paragraph" unicode="&#xb6;" horiz-adv-x="798" 
d="M358 700h291v-24q-51 -6 -64.5 -15t-13.5 -35v-786h-80v828h-80v-828h-80v449q-89 0 -135.5 57.5t-46.5 154.5q0 106 48.5 152.5t160.5 46.5zM331 -160h80h-80z" />
    <glyph glyph-name="periodcentered" unicode="&#xb7;" horiz-adv-x="424" 
d="M132 342q0 35 25 59.5t59 24.5t59 -24.5t25 -59.5t-25 -59.5t-59 -24.5t-59 24.5t-25 59.5z" />
    <glyph glyph-name="guillemotright" unicode="&#xbb;" 
d="M85 487h117l157 -194l-157 -195h-117l160 195zM306 487h117l157 -194l-157 -195h-117l159 195z" />
    <glyph glyph-name="divide" unicode="&#xf7;" horiz-adv-x="798" 
d="M106 339h586v-93h-586v93zM315 532q0 35 25 59.5t59 24.5t59 -24.5t25 -59.5t-25 -59.5t-59 -24.5t-59 24.5t-25 59.5zM315 53q0 35 25 59.5t59 24.5t59 -24.5t25 -59.5q0 -34 -25 -58t-59 -24t-59 24t-25 58z" />
    <glyph glyph-name="florin" unicode="&#x192;" 
d="M-46 -227l-11 6l43 133l17 -6q3 -64 71 -64q47 0 68.5 41t37.5 128q32 174 57 327h-123v74h136q25 158 71 227t148 69q30 0 75 -15l43 -15q2 0 3 1t3.5 3t4.5 4l14 -5l-35 -128l-18 6q-1 27 -20 45t-44 18q-45 0 -70.5 -42t-44.5 -168h117v-74h-130q-10 -48 -25 -148
t-32.5 -177.5t-47.5 -156.5q-19 -51 -65 -77.5t-100 -26.5q-39 0 -86 15q-8 2 -17.5 6t-15.5 6t-9 2q-9 0 -15 -8z" />
    <glyph glyph-name="uni0394" unicode="&#x394;" horiz-adv-x="667" 
d="M2 1l353 688l310 -688h-663zM316 443l-186 -361h351z" />
    <glyph glyph-name="uni03BC" unicode="&#x3bc;" 
d="M435 567v18h160v-18q-22 0 -22 -35v-322q0 -216 -239 -216q-76 0 -123 23v-212q0 -34 22 -34v-19h-163v19q24 0 24 34v727q0 35 -24 35v18h163v-18q-22 0 -22 -35v-335q0 -52 32 -82t91 -30t90.5 29.5t31.5 82.5v335q0 35 -21 35z" />
    <glyph glyph-name="afii10023" unicode="&#x401;" horiz-adv-x="638" 
d="M427 308h-229v-193h362q12 0 18.5 7t11.5 26h12v-180h-12q-5 19 -11.5 25.5t-18.5 6.5h-509v16q26 11 26 37v593q0 27 -26 37v17h499q22 0 29 34h14v-182h-14q-4 18 -10.5 25.5t-18.5 7.5h-352v-166h229q12 0 18.5 7t10.5 25h14v-176h-14q-7 33 -29 33zM247 844
q23 0 39 -15.5t16 -38.5q0 -21 -16.5 -36t-38.5 -15q-21 0 -37 15.5t-16 37.5t15.5 37t37.5 15zM410 844q22 0 38 -15t16 -36q0 -23 -15.5 -38.5t-38.5 -15.5q-22 0 -37.5 15.5t-15.5 37.5q0 21 15.5 36.5t37.5 15.5z" />
    <glyph glyph-name="afii10051" unicode="&#x402;" horiz-adv-x="820" 
d="M549 588h-160v-185q21 11 67 21.5t78 10.5q108 0 168 -55t60 -146q0 -105 -51.5 -169.5t-147.5 -64.5h-35v152h19q5 -27 29 -27q21 0 37 23t16 67q0 111 -122 111q-27 0 -65 -9.5t-53 -20.5v-243q0 -17 6.5 -24t25.5 -10v-19h-192v19q27 5 27 34v535h-160q-24 0 -33 -6
t-12 -25h-18v167h18q3 -15 12.5 -19.5t32.5 -4.5h453q23 0 32.5 4.5t12.5 19.5h18v-167h-18q-3 19 -12 25t-33 6z" />
    <glyph glyph-name="afii10052" unicode="&#x403;" horiz-adv-x="565" 
d="M267 19v-19h-222v19q26 3 34.5 10t8.5 24v593q0 18 -8.5 25t-36.5 10v19h441q21 0 30 5t12 19h18v-160h-18q-3 14 -12 19t-30 5h-263v-535q0 -17 8.5 -24t37.5 -10zM449 910l-172 -186h-91l117 186h146z" />
    <glyph glyph-name="afii10053" unicode="&#x404;" 
d="M505 223l16 6l112 -145l-11 -12q-10 13 -22 13q-9 0 -27.5 -14t-41 -31.5t-69.5 -31.5t-106 -14q-146 0 -232.5 100.5t-86.5 248.5q0 178 91.5 271.5t233.5 93.5q87 0 147 -34q12 -6 26.5 -15.5t22.5 -13.5t13 -4q11 0 29 12l6 -7l-87 -159l-12 5q1 4 1 13
q0 36 -40.5 63.5t-92.5 27.5q-175 0 -200 -181h176q24 0 33 4.5t12 19.5h19v-157h-19q-3 13 -12 17t-33 4h-179q11 -90 64.5 -144.5t133.5 -54.5q54 0 97.5 29t43.5 63q0 15 -6 27z" />
    <glyph glyph-name="afii10054" unicode="&#x405;" 
d="M57 32l-13 8l80 165l18 -8q-2 -10 -2 -13q0 -33 61 -56.5t124 -23.5q163 0 163 103q0 30 -23 49.5t-60 30.5t-82 20.5t-90 22.5t-82 32.5t-60 56t-23 86.5q0 86 64 144.5t187 58.5q86 0 160 -28q13 -5 30.5 -13t26.5 -11.5t15 -3.5q17 0 30 16l11 -6l-99 -165l-18 8
q0 1 0.5 10t0.5 13q0 27 -46.5 52.5t-122.5 25.5q-54 0 -80 -23t-26 -59q0 -28 23 -47t60 -29t82 -19t90 -23.5t82 -35.5t60 -61t23 -96q0 -89 -78.5 -154t-224.5 -65q-80 0 -157 27q-16 6 -34 14.5t-28 12t-19 3.5q-7 0 -23 -19z" />
    <glyph glyph-name="afii10055" unicode="&#x406;" horiz-adv-x="370" 
d="M297 19v-19h-224v19q28 3 36.5 10t8.5 24v593q0 18 -8.5 25t-36.5 10v19h224v-19q-28 -3 -37 -10t-9 -25v-593q0 -17 9 -24t37 -10z" />
    <glyph glyph-name="afii10056" unicode="&#x407;" horiz-adv-x="370" 
d="M297 19v-19h-224v19q28 3 36.5 10t8.5 24v593q0 18 -8.5 25t-36.5 10v19h224v-19q-28 -3 -37 -10t-9 -25v-593q0 -17 9 -24t37 -10zM16 873h122v-133h-122v133zM231 873h123v-133h-123v133z" />
    <glyph glyph-name="afii10057" unicode="&#x408;" horiz-adv-x="517" 
d="M17 32l-16 8l64 159l12 -3q-8 -36 38 -64t90 -28q88 0 88 82v460q0 17 -6.5 24.5t-24.5 10.5v19h194v-19q-18 -3 -24 -10.5t-6 -24.5v-476q0 -88 -55 -132t-149 -44q-67 0 -121 23q-11 5 -24 12t-20.5 10.5t-13.5 3.5q-17 0 -26 -11z" />
    <glyph glyph-name="afii10058" unicode="&#x409;" horiz-adv-x="1026" 
d="M734 0h-312v19q21 3 27.5 10t6.5 24v535h-220v-273q0 -181 -39 -233q-33 -44 -69 -63t-88 -19h-25v152h19q5 -27 19 -27q50 0 50 118v403q0 17 -7 24.5t-27 10.5v19h555v-19q-21 -3 -28 -10t-7 -24v-224h145q124 0 186 -60t62 -151t-62 -151.5t-186 -60.5zM849 212
q0 54 -32 76.5t-107 22.5h-121v-199h121q74 0 106.5 23t32.5 77z" />
    <glyph glyph-name="afii10059" unicode="&#x40a;" horiz-adv-x="1084" 
d="M1039 212q0 -91 -62 -151.5t-186 -60.5h-312v19q21 3 27.5 10t6.5 24v258h-287v-258q0 -17 7 -24t28 -10v-19h-202v19q20 3 27 10t7 24v593q0 17 -7 24.5t-27 10.5v19h202v-19q-21 -3 -28 -10.5t-7 -24.5v-223h287v223q0 18 -6.5 25t-27.5 10v19h202v-19q-21 -3 -28 -10
t-7 -24v-224h145q124 0 186 -60t62 -151zM906 212q0 54 -32 76.5t-107 22.5h-121v-199h121q74 0 106.5 23t32.5 77z" />
    <glyph glyph-name="afii10060" unicode="&#x40b;" horiz-adv-x="820" 
d="M793 19v-19h-202v19q21 3 28 10.5t7 24.5v125q0 72 -28 100.5t-113 28.5h-96v-255q0 -17 6.5 -24t25.5 -10v-19h-192v19q27 5 27 34v535h-160q-24 0 -33 -6t-12 -25h-18v167h18q3 -15 12.5 -19.5t32.5 -4.5h453q23 0 32.5 4.5t12.5 19.5h18v-167h-18q-3 19 -12 25t-33 6
h-160v-168h141q108 0 168.5 -55.5t60.5 -148.5v-162q0 -17 7 -24.5t27 -10.5z" />
    <glyph glyph-name="afii10061" unicode="&#x40c;" 
d="M258 19v-19h-199v19q18 3 24.5 10t6.5 24v593q0 18 -6.5 25t-27.5 10v19h199v-19q-19 -3 -25.5 -10.5t-6.5 -24.5v-231h3l210 227q16 18 16 22q0 9 -14 17v19h208v-19q-30 -4 -44 -20l-219 -242l185 -291q5 -8 13.5 -21t12.5 -19.5t10.5 -16t10 -14.5t9 -12t9.5 -10.5
t9 -7t10 -5.5t10 -3v-19h-203v19q14 2 14 18q0 8 -11 25l-171 267l-68 -71v-205q0 -17 7 -24t28 -10zM509 910l-172 -186h-91l117 186h146z" />
    <glyph glyph-name="afii10062" unicode="&#x40e;" 
d="M202 66l74 162l-178 369q-11 23 -17.5 34.5t-20.5 27t-31 22.5v19h207v-19q-10 0 -19.5 -4t-9.5 -10q0 -5 13 -31l124 -258h2l117 260q8 16 8 26q0 17 -31 17v19h199v-19q-27 -6 -36 -27l-261 -576q-14 -30 -14 -39q0 -20 22 -20v-19h-208v19q21 3 34.5 12t25.5 35z
M382 868h131v-23q0 -58 -50 -96t-123 -38q-74 0 -124 38.5t-50 95.5v23h132v-19q-11 -1 -16 -7.5t-5 -11.5q0 -15 19 -24t44 -9q24 0 44.5 9t20.5 24q0 6 -6.5 12t-16.5 7v19z" />
    <glyph glyph-name="afii10145" unicode="&#x40f;" horiz-adv-x="739" 
d="M681 19v-19h-246v-84q0 -17 7 -24t28 -10v-19h-203v19q21 3 28 10t7 24v84h-243v19q20 3 27 10t7 24v593q0 17 -7 24.5t-27 10.5v19h202v-19q-21 -3 -28 -10.5t-7 -24.5v-534h287v534q0 18 -6.5 25t-27.5 10v19h202v-19q-21 -3 -28 -10.5t-7 -24.5v-593q0 -17 7 -24
t28 -10z" />
    <glyph glyph-name="afii10017" unicode="&#x410;" horiz-adv-x="671" 
d="M490 80l-37 99h-255l-38 -99q-8 -21 -8 -33q0 -21 28 -31v-16h-185v16q15 4 24 14.5t20 40.5l206 538q9 25 9 41q0 24 -23 33v17h198v-17q-24 -8 -24 -29q0 -13 8 -34l213 -540q14 -36 24 -48t27 -16v-16h-205v16q26 8 26 32q0 11 -8 32zM327 521h-2l-91 -246h182z" />
    <glyph glyph-name="afii10018" unicode="&#x411;" 
d="M541 585h-343v-169h220q111 0 165.5 -50.5t54.5 -158.5q0 -109 -54 -158t-166 -49h-367v16q26 10 26 37v593q0 27 -26 37v17h490q13 0 19 7t10 27h13v-182h-13q-4 19 -10 26t-19 7zM404 300h-206v-185h206q53 0 81 16q29 17 29 76q0 55 -26.5 74t-83.5 19z" />
    <glyph glyph-name="afii10019" unicode="&#x412;" horiz-adv-x="679" 
d="M550 367q93 -45 93 -166q0 -107 -59 -154t-150 -47h-383v16q26 11 26 37v593q0 27 -26 37v17h379q90 0 143 -41t53 -144q0 -102 -76 -148zM414 585h-216v-163h216q47 0 68.5 17.5t21.5 63.5q0 44 -21 63t-69 19zM407 306h-209v-191h209q56 0 83.5 20.5t27.5 75.5
q0 54 -27 74.5t-84 20.5z" />
    <glyph glyph-name="afii10020" unicode="&#x413;" horiz-adv-x="576" 
d="M225 16v-16h-174v16q26 10 26 37v593q0 28 -26 37v17h474q12 0 18.5 7t11.5 27h12v-182h-12q-5 19 -11.5 26t-18.5 7h-326v-532q0 -26 26 -37z" />
    <glyph glyph-name="afii10021" unicode="&#x414;" horiz-adv-x="706" 
d="M256 683v17h194v-17q-26 -5 -26 -30q0 -11 12 -44l184 -495h32q21 0 29 34h13v-180h-13q-7 32 -29 32h-596q-13 0 -19.5 -7t-10.5 -25h-14v180h14q4 -20 10.5 -27t19.5 -7h31l184 495q12 33 12 44q0 25 -27 30zM212 114h275l-137 383z" />
    <glyph glyph-name="afii10022" unicode="&#x415;" horiz-adv-x="638" 
d="M427 308h-229v-193h362q12 0 18.5 7t11.5 26h12v-180h-12q-5 19 -11.5 25.5t-18.5 6.5h-509v16q26 11 26 37v593q0 27 -26 37v17h499q22 0 29 34h14v-182h-14q-4 18 -10.5 25.5t-18.5 7.5h-352v-166h229q12 0 18.5 7t10.5 25h14v-176h-14q-7 33 -29 33z" />
    <glyph glyph-name="afii10024" unicode="&#x416;" horiz-adv-x="971" 
d="M425 53v231l-43 43l-165 -253q-20 -32 -20 -38q0 -13 22 -20v-16h-219v16q27 6 41 23q11 15 36 53l215 325l-221 223q-9 9 -17.5 19t-12 13t-9.5 6t-17 5v17h228v-17q-24 -5 -24 -20q0 -10 16 -26l190 -193v202q0 29 -26 37v17h173v-17q-25 -9 -25 -37v-202l189 193
q15 15 15 26q0 15 -24 20v17h230v-17q-10 -2 -16.5 -5t-10 -6t-13 -13.5t-17.5 -18.5l-221 -223l216 -325l35 -53q14 -17 41 -23v-16h-219v16q22 7 22 20q0 6 -20 38l-165 253l-42 -43v-231q0 -27 25 -37v-16h-173v16q26 11 26 37z" />
    <glyph glyph-name="afii10025" unicode="&#x417;" horiz-adv-x="685" 
d="M40 85l-10 9l78 146l11 -9q0 -25 16 -45t57 -46q53 -34 150 -34q179 0 179 105q0 59 -40.5 82.5t-132.5 23.5q-52 0 -70 -7.5t-18 -28.5h-13v175h13q0 -21 18.5 -29t69.5 -8q90 0 124 18.5t34 65.5q0 91 -149 91q-81 0 -147 -36t-66 -88l-11 -10l-77 146l10 10
q11 -14 19 -14q11 0 33 16q132 94 239 94q118 0 194.5 -52t76.5 -145q0 -51 -15.5 -84t-54.5 -64q46 -30 67 -68.5t21 -97.5q0 -212 -304 -212q-113 0 -194 53q-7 4 -29 19.5t-38.5 26t-20.5 10.5q-8 0 -20 -13z" />
    <glyph glyph-name="afii10026" unicode="&#x418;" horiz-adv-x="721" 
d="M522 53v407l-324 -368v-39q0 -27 27 -37v-16h-174v16q26 11 26 37v593q0 29 -26 37v17h174v-17q-27 -7 -27 -37v-406l324 367v39q0 29 -26 37v17h174v-17q-26 -8 -26 -37v-593q0 -26 26 -37v-16h-174v16q26 11 26 37z" />
    <glyph glyph-name="afii10027" unicode="&#x419;" horiz-adv-x="721" 
d="M522 53v407l-324 -368v-39q0 -27 27 -37v-16h-174v16q26 11 26 37v593q0 29 -26 37v17h174v-17q-27 -7 -27 -37v-406l324 367v39q0 29 -26 37v17h174v-17q-26 -8 -26 -37v-593q0 -26 26 -37v-16h-174v16q26 11 26 37zM234 817v11h82v-11q-8 0 -9 -1t-1 -8q0 -20 15 -34.5
t37 -14.5t37 14.5t15 34.5q0 7 -1 8t-9 1v11h82v-11q-13 0 -13 -25q0 -40 -34 -66t-75 -26q-42 0 -77 26t-35 66q0 25 -14 25z" />
    <glyph glyph-name="afii10028" unicode="&#x41a;" horiz-adv-x="668" 
d="M448 74l-165 253l-85 -85v-189q0 -27 27 -37v-16h-174v16q26 11 26 37v593q0 29 -26 37v17h174v-17q-27 -7 -27 -37v-244l232 235q16 16 16 26q0 15 -24 20v17h229v-17q-10 -2 -16.5 -5t-10 -6t-13 -13.5t-17.5 -18.5l-221 -223l216 -325l35 -53q14 -17 41 -23v-16h-219
v16q22 7 22 20q0 7 -20 38z" />
    <glyph glyph-name="afii10029" unicode="&#x41b;" horiz-adv-x="648" 
d="M651 16v-16h-200v16q27 8 27 29q0 15 -9 40l-148 412l-149 -412q-10 -29 -10 -40q0 -22 27 -29v-16h-191v16q26 5 30 18l19 51l194 524q12 33 12 44q0 25 -26 30v17h194v-17q-26 -5 -26 -30q0 -11 12 -44l194 -524q16 -44 25.5 -56.5t24.5 -12.5z" />
    <glyph glyph-name="afii10030" unicode="&#x41c;" horiz-adv-x="813" 
d="M762 16v-16h-175v16q26 11 26 37v431l-217 -474l-207 474v-431q0 -27 26 -37v-16h-164v16q26 11 26 37v593q0 29 -26 37v17h215v-17q-19 -6 -19 -27q0 -10 6 -24l153 -352l154 346q10 23 10 35q0 20 -20 22v17h212v-17q-27 -7 -27 -37v-593q0 -26 27 -37z" />
    <glyph glyph-name="afii10031" unicode="&#x41d;" horiz-adv-x="722" 
d="M523 53v253h-324v-253q0 -26 26 -37v-16h-174v16q26 10 26 37v593q0 28 -26 37v17h174v-17q-26 -9 -26 -37v-225h324v225q0 28 -27 37v17h175v-17q-27 -7 -27 -37v-593q0 -26 27 -37v-16h-175v16q27 11 27 37z" />
    <glyph glyph-name="afii10032" unicode="&#x41e;" horiz-adv-x="717" 
d="M358 712q140 0 231.5 -101t91.5 -265q0 -162 -91 -259.5t-232 -97.5q-138 0 -230 99t-92 263q0 161 88.5 261t233.5 100zM358 594q-86 0 -141 -69t-55 -174q0 -107 55 -175.5t141 -68.5t141.5 68.5t55.5 171.5q0 110 -55 178.5t-142 68.5z" />
    <glyph glyph-name="afii10033" unicode="&#x41f;" horiz-adv-x="721" 
d="M522 53v532h-324v-532q0 -27 27 -37v-16h-174v16q26 11 26 37v593q0 29 -26 37v17h619v-17q-26 -8 -26 -37v-593q0 -26 26 -37v-16h-174v16q26 11 26 37z" />
    <glyph glyph-name="afii10034" unicode="&#x420;" horiz-adv-x="642" 
d="M225 16v-16h-174v16q26 10 26 37v593q0 28 -26 37v17h350q111 0 165.5 -49.5t54.5 -158.5q0 -107 -55 -157.5t-165 -50.5h-202v-231q0 -26 26 -37zM386 585h-187v-185h187q53 0 81 16q29 17 29 76q0 54 -27 73.5t-83 19.5z" />
    <glyph glyph-name="afii10035" unicode="&#x421;" horiz-adv-x="708" 
d="M580 231l12 9l77 -146l-10 -9q-10 13 -19 13q-5 0 -21.5 -10.5t-38 -26t-28.5 -19.5q-47 -31 -86 -42q-42 -11 -101 -11q-142 0 -235.5 95.5t-93.5 266.5q0 167 92.5 264t237.5 97q52 0 103 -15t85 -40q69 -51 83 -51q15 0 22 10l10 -10l-77 -146l-12 10q0 52 -61 88
t-139 36q-96 0 -158 -66.5t-62 -176.5q0 -111 61.5 -177.5t158.5 -66.5q72 0 128 34q41 25 56.5 45t15.5 45z" />
    <glyph glyph-name="afii10036" unicode="&#x422;" horiz-adv-x="574" 
d="M374 16v-16h-175v16q26 10 26 37v532h-173q-13 0 -19.5 -7t-10.5 -26h-13v182h13q4 -20 10.5 -27t19.5 -7h469q13 0 19 7t11 27h14v-182h-14q-5 19 -11.5 26t-18.5 7h-173v-532q0 -27 26 -37z" />
    <glyph glyph-name="afii10037" unicode="&#x423;" horiz-adv-x="666" 
d="M44 683v17h199v-17q-27 -6 -27 -25q0 -14 10 -43l135 -377l136 377q9 25 9 40q0 22 -26 28v17h192v-17q-17 0 -25 -11t-25 -57l-173 -467q-33 -90 -77.5 -124.5t-122.5 -34.5q-45 0 -69 5.5t-79 27.5q-31 13 -52 13q-14 0 -25 -14l-12 6l52 177l13 -5q0 -42 45.5 -68
t105.5 -26q18 0 51 11l-186 499q-3 9 -8.5 24t-7 19.5t-6.5 11.5t-11 9t-16 4z" />
    <glyph glyph-name="afii10038" unicode="&#x424;" horiz-adv-x="844" 
d="M509 16v-16h-174v16q27 11 27 37v120h-121q-110 0 -165 51t-55 158q0 108 54.5 157.5t165.5 49.5h121v57q0 28 -27 37v17h174v-17q-27 -9 -27 -37v-57h121q111 0 165.5 -49.5t54.5 -157.5q0 -107 -55 -158t-165 -51h-121v-120q0 -27 27 -37zM589 474h-107v-185h107
q57 0 83 18.5t26 74.5q0 55 -25.5 73.5t-83.5 18.5zM255 289h107v185h-107q-58 0 -83.5 -18.5t-25.5 -73.5q0 -56 26 -74.5t83 -18.5z" />
    <glyph glyph-name="afii10039" unicode="&#x425;" horiz-adv-x="633" 
d="M401 683v17h219v-17q-11 -1 -18 -3t-13.5 -9t-10 -12t-13 -21t-17.5 -27l-161 -246l170 -275l33 -52q10 -16 40 -22v-16h-222v16q25 7 25 27q0 11 -15 35l-108 173l-103 -167q-17 -27 -17 -39q0 -26 28 -29v-16h-215v16q16 0 27 11t44 63l169 267l-155 254q-5 9 -13.5 23
t-11.5 18.5t-9 12.5t-10.5 10t-12 4.5t-17.5 3.5v17h226v-17q-25 -7 -25 -30q0 -12 18 -42l87 -141l90 141q20 31 20 45q0 22 -29 27z" />
    <glyph glyph-name="afii10040" unicode="&#x426;" horiz-adv-x="709" 
d="M467 683v17h174v-17q-26 -9 -26 -37v-531h51q13 0 19.5 7.5t10.5 26.5h13v-181h-13q-4 18 -10.5 25t-19.5 7h-615v16q26 11 26 37v593q0 29 -26 37v17h174v-17q-26 -8 -26 -37v-531h294v531q0 29 -26 37z" />
    <glyph glyph-name="afii10041" unicode="&#x427;" horiz-adv-x="634" 
d="M409 683v17h174v-17q-26 -9 -26 -37v-593q0 -27 26 -37v-16h-174v16q26 11 26 37v231h-165q-110 0 -165 50.5t-55 157.5v154q0 28 -26 37v17h174v-17q-26 -9 -26 -37v-154q0 -60 30 -76q31 -16 83 -16h150v246q0 28 -26 37z" />
    <glyph glyph-name="afii10042" unicode="&#x428;" horiz-adv-x="864" 
d="M813 16v-16h-762v16q26 11 26 37v593q0 29 -26 37v17h174v-17q-27 -7 -27 -37v-531h173v531q0 28 -26 37v17h173v-17q-25 -9 -25 -37v-531h172v531q0 30 -27 37v17h175v-17q-27 -7 -27 -37v-600q0 -22 27 -30z" />
    <glyph glyph-name="afii10043" unicode="&#x429;" horiz-adv-x="881" 
d="M198 646v-531h173v531q0 28 -26 37v17h173v-17q-25 -9 -25 -37v-531h172v531q0 30 -27 37v17h175v-17q-27 -7 -27 -37v-531h52q12 0 18.5 7.5t11.5 26.5h13v-181h-13q-5 19 -11.5 25.5t-18.5 6.5h-787v16q26 11 26 37v593q0 29 -26 37v17h174v-17q-27 -7 -27 -37z" />
    <glyph glyph-name="afii10044" unicode="&#x42a;" horiz-adv-x="679" 
d="M60 700h235v-17q-26 -8 -26 -37v-230h172q110 0 165 -51t55 -158q0 -108 -54.5 -157.5t-165.5 -49.5h-320v16q26 9 26 37v532h-87q-12 0 -18.5 -7.5t-10.5 -25.5h-13v182h13q4 -20 10.5 -27t18.5 -7zM427 300h-158v-185h158q53 0 81 16t28 76q0 55 -26.5 74t-82.5 19z
" />
    <glyph glyph-name="afii10045" unicode="&#x42b;" horiz-adv-x="873" 
d="M51 683v17h174v-17q-27 -9 -27 -37v-230h173q110 0 165 -51t55 -158q0 -108 -54.5 -157.5t-165.5 -49.5h-320v16q26 10 26 37v593q0 27 -26 37zM356 300h-158v-185h158q53 0 81 16q29 17 29 76q0 55 -26.5 74t-83.5 19zM822 16v-16h-174v16q26 10 26 37v593q0 28 -26 37
v17h174v-17q-26 -9 -26 -37v-593q0 -26 26 -37z" />
    <glyph glyph-name="afii10046" unicode="&#x42c;" horiz-adv-x="639" 
d="M51 683v17h174v-17q-26 -9 -26 -37v-230h202q110 0 165 -51t55 -158q0 -108 -54.5 -157.5t-165.5 -49.5h-350v16q26 9 26 37v593q0 28 -26 37zM386 300h-187v-185h187q53 0 81 16q29 17 29 76q0 55 -26.5 74t-83.5 19z" />
    <glyph glyph-name="afii10047" unicode="&#x42d;" horiz-adv-x="709" 
d="M39 94l79 146l10 -9q0 -25 16 -45t57 -45q56 -34 127 -34q87 0 145.5 53t71.5 145h-219q-21 0 -30 -33h-13v176h13q7 -32 30 -32h216q-17 82 -75.5 130t-138.5 48q-78 0 -139 -36t-61 -88l-10 -10l-79 146l11 10q9 -12 20 -12q13 0 33 17q68 57 122 73q57 18 118 18
q147 0 238.5 -97t91.5 -264q0 -170 -94 -266t-235 -96q-60 0 -100 11.5t-87 41.5q-7 4 -29 19.5t-38.5 26t-20.5 10.5q-7 0 -19 -13z" />
    <glyph glyph-name="afii10048" unicode="&#x42e;" horiz-adv-x="876" 
d="M225 16v-16h-174v16q26 11 26 37v593q0 29 -26 37v17h174v-17q-27 -7 -27 -37v-233h115q12 136 82.5 217.5t178.5 81.5q120 0 193 -102t73 -265q0 -154 -73.5 -255t-192.5 -101q-111 0 -180.5 85t-81.5 226h-114v-247q0 -27 27 -37zM574 593q-65 0 -102.5 -71.5
t-37.5 -166.5q0 -97 37.5 -168.5t102.5 -71.5q66 0 103.5 71t37.5 165q0 101 -36.5 171.5t-104.5 70.5z" />
    <glyph glyph-name="afii10049" unicode="&#x42f;" horiz-adv-x="670" 
d="M619 16v-16h-174v16q26 11 26 37v233h-149l-113 -206q-20 -37 -20 -45q0 -15 21 -19v-16h-204v16q8 1 14.5 3t12 6.5t9.5 8t10 12.5t9 14.5t10 18t11 19.5l108 188q-152 35 -152 206q0 105 50.5 156.5t181.5 51.5h349v-17q-26 -9 -26 -37v-593q0 -27 26 -37zM282 394h189
v191h-189q-69 0 -96 -21t-27 -72q0 -50 28 -74t95 -24z" />
    <glyph glyph-name="afii10065" unicode="&#x430;" horiz-adv-x="591" 
d="M164 19v-19h-136v19q11 5 16 22l164 477q9 25 9 30q0 10 -11 19v18h165v-18q-9 -7 -9 -16q0 -3 10 -33l159 -453q12 -37 22 -43q5 -2 10 -3v-19h-164v19q16 7 16 21q0 9 -4 21l-28 96h-198l-28 -92q-4 -12 -4 -24q0 -19 11 -22zM360 231l-75 235h-2l-76 -235h153z" />
    <glyph glyph-name="afii10066" unicode="&#x431;" horiz-adv-x="556" 
d="M449 489h-301v-141h193q98 0 145.5 -42.5t47.5 -132.5q0 -91 -47.5 -132t-145.5 -41h-321v14q22 7 22 31v495q0 23 -22 31v14h429q11 0 16.5 6t9.5 23h11v-152h-11q-4 15 -9.5 21t-16.5 6zM329 251h-181v-155h181q45 0 71 14t26 63q0 46 -23.5 62t-73.5 16z" />
    <glyph glyph-name="afii10067" unicode="&#x432;" horiz-adv-x="583" 
d="M481 307q86 -38 86 -139q0 -89 -55 -129q-54 -39 -138 -39h-353v13q24 9 24 31v496q0 23 -24 31v14h349q83 0 132 -34q49 -35 49 -121q0 -84 -70 -123zM356 489h-200v-136h200q43 0 62.5 14.5t19.5 52.5q0 37 -19 53t-63 16zM349 256h-193v-160h193q52 0 77 17.5t25 62.5
q0 46 -24.5 63t-77.5 17z" />
    <glyph glyph-name="afii10068" unicode="&#x433;" horiz-adv-x="517" 
d="M230 19v-19h-157v19q3 0 6.5 3t7 11.5t3.5 19.5v479q0 17 -6.5 26t-13.5 9v18h357q29 0 35 24h18v-141h-18q-7 24 -35 24h-220v-439q0 -34 23 -34z" />
    <glyph glyph-name="afii10069" unicode="&#x434;" horiz-adv-x="706" 
d="M348 417l-125 -322h250zM263 574v14h176v-14q-24 -5 -24 -26q0 -11 11 -37l167 -416h29q19 0 26 28h12v-150h-12q-6 27 -26 27h-540q-22 0 -27 -27h-13v150h13q3 -16 9 -22t18 -6h28l167 416q11 26 11 37q0 22 -25 26z" />
    <glyph glyph-name="afii10070" unicode="&#x435;" horiz-adv-x="591" 
d="M104 53v479q0 35 -24 35v18h388q29 0 35 24h18v-151h-18q-3 18 -10.5 26t-24.5 8h-247v-144h149q17 0 24 6.5t10 23.5h19v-152h-19q-3 17 -10 23t-24 6h-149v-162h247q29 0 35 33h18v-148h-18q-5 22 -35 22h-388v19q24 0 24 34z" />
    <glyph glyph-name="afii10072" unicode="&#x436;" horiz-adv-x="888" 
d="M867 19v-19h-175v19q21 0 21 10q0 9 -19 39l-134 214l-55 -53v-176q0 -17 8 -25.5t19 -8.5v-19h-171v19q11 0 19 8.5t8 25.5v176l-55 53l-134 -214q-19 -30 -19 -39q0 -10 21 -10v-19h-175v19q28 11 56 53l185 278l-200 198q-15 15 -33 19v18h175v-18q-16 -3 -16 -10
q0 -2 1 -4.5t3.5 -5.5t5 -5.5l7.5 -7.5l9 -9l167 -177h2v184q0 17 -8 26t-17 9v18h167v-18q-9 0 -17 -9t-8 -26v-184h2l167 177l9 9l7.5 7.5t5 5.5t3.5 5.5t1 4.5q0 7 -16 10v18h175v-18q-18 -4 -33 -19l-200 -198l185 -278q28 -42 56 -53z" />
    <glyph glyph-name="afii10073" unicode="&#x437;" horiz-adv-x="520" 
d="M21 75l-8 8l62 120l8 -8q0 -37 58 -74q41 -28 118 -28q140 0 140 86q0 49 -31.5 68t-104.5 19q-40 0 -54.5 -6.5t-14.5 -23.5h-10v144h10q0 -17 14.5 -23.5t54.5 -6.5q71 0 97.5 15t26.5 54q0 75 -117 75q-63 0 -115 -30t-52 -72l-9 -8l-60 120l8 8q9 -12 14 -12
q7 0 26 14q106 77 188 77q93 0 153 -43t60 -119q0 -42 -12.5 -69t-42.5 -53q36 -25 53 -56.5t17 -79.5q0 -174 -239 -174q-90 0 -153 43q-67 46 -69 46q-8 0 -16 -11z" />
    <glyph glyph-name="afii10074" unicode="&#x438;" horiz-adv-x="542" 
d="M403 44v340l-268 -307v-33q0 -23 22 -30v-14h-144v14q22 8 22 30v496q0 25 -22 31v14h144v-14q-22 -6 -22 -31v-339l268 306v33q0 25 -22 31v14h144v-14q-21 -6 -21 -31v-496q0 -22 21 -30v-14h-144v14q22 8 22 30z" />
    <glyph glyph-name="afii10075" unicode="&#x439;" horiz-adv-x="542" 
d="M403 44v340l-268 -307v-33q0 -23 22 -30v-14h-144v14q22 8 22 30v496q0 25 -22 31v14h144v-14q-22 -6 -22 -31v-339l268 306v33q0 25 -22 31v14h144v-14q-21 -6 -21 -31v-496q0 -22 21 -30v-14h-144v14q22 8 22 30zM164 683v9h68v-9q-8 -4 -8 -8q0 -17 12.5 -29t30.5 -12
t30.5 12t12.5 29q-5 7 -8 8v9h68v-9q-11 0 -11 -21q0 -33 -28 -55t-62 -22q-35 0 -64 21.5t-29 55.5q0 21 -12 21z" />
    <glyph glyph-name="afii10076" unicode="&#x43a;" horiz-adv-x="591" 
d="M239 19v-19h-167v19q26 0 26 34v479q0 35 -26 35v18h165v-18q-9 0 -15.5 -9t-6.5 -26v-183h2l167 176l9 9l7.5 7.5t5 5.5t3.5 5.5t1 4.5q0 7 -16 10v18h175v-18q-18 -4 -33 -19l-200 -198l185 -278q28 -42 56 -53v-19h-175v19q21 0 21 10q0 9 -19 39l-134 214l-55 -53
v-176q0 -34 24 -34z" />
    <glyph glyph-name="afii10077" unicode="&#x43b;" horiz-adv-x="604" 
d="M200 569v16h204v-16q-13 0 -21.5 -5t-8.5 -12q0 -2 12 -33l174 -459q5 -12 7 -16l6 -12t8.5 -11.5t9.5 -4.5v-16h-173v16q25 4 25 19q0 2 -8 29l-136 370h-2l-131 -374q-8 -22 -8 -30q0 -9 28 -14v-16h-166v16q21 7 34 46l167 464q5 15 5 27q0 16 -26 16z" />
    <glyph glyph-name="afii10078" unicode="&#x43c;" horiz-adv-x="629" 
d="M608 14v-13h-145v13q22 9 22 31v361l-180 -397l-172 397v-361q0 -22 22 -31v-13h-136v13q22 10 22 31v496q0 25 -22 31v14h178v-14q-16 -4 -16 -23q0 -7 5 -20l127 -292l128 288q8 18 8 29q0 16 -16 18v14h175v-14q-22 -6 -22 -31v-496q0 -21 22 -31z" />
    <glyph glyph-name="afii10079" unicode="&#x43d;" 
d="M233 19v-19h-161v19q6 0 12 8.5t6 25.5v479q0 17 -6 26t-12 9v18h157v-18q-9 0 -15.5 -9t-6.5 -26v-186h245v186q0 17 -6.5 26t-14.5 9v18h160v-18q-9 0 -15.5 -9t-6.5 -26v-479q0 -34 24 -34v-19h-159v19q6 0 12 8.5t6 25.5v200h-245v-200q0 -34 26 -34z" />
    <glyph glyph-name="afii10080" unicode="&#x43e;" 
d="M52 293q0 131 78.5 215.5t201.5 84.5q124 0 202.5 -84.5t78.5 -215.5q0 -132 -78.5 -215.5t-202.5 -83.5q-123 0 -201.5 83.5t-78.5 215.5zM164 293q0 -96 48 -152t120 -56q73 0 121 56t48 152q0 95 -48 151t-121 56q-72 0 -120 -56t-48 -151z" />
    <glyph glyph-name="afii10081" unicode="&#x43f;" 
d="M233 19v-19h-161v19q6 0 12 8.5t6 25.5v479q0 17 -6 26t-12 9v18h519v-18q-9 0 -15.5 -9t-6.5 -26v-479q0 -34 24 -34v-19h-159v19q6 0 12 8.5t6 25.5v439h-245v-439q0 -34 26 -34z" />
    <glyph glyph-name="afii10082" unicode="&#x440;" horiz-adv-x="487" 
d="M152 13v-13h-141v13q21 9 21 31v496q0 24 -21 31v14h283q90 0 134 -41.5t44 -132.5q0 -173 -178 -173h-163v-194q0 -22 21 -31zM282 489h-151v-154h151q43 0 66 13q23 14 23 63q0 46 -21.5 62t-67.5 16z" />
    <glyph glyph-name="afii10083" unicode="&#x441;" horiz-adv-x="549" 
d="M461 201l10 8l64 -121l-8 -7q-9 10 -16 10q-4 0 -18 -8.5t-32 -21.5t-24 -16q-43 -26 -72 -34q-31 -10 -84 -10q-119 0 -197.5 79.5t-78.5 219.5q0 138 77.5 218.5t198.5 80.5q93 0 158 -46q58 -42 69 -42q12 0 19 8l8 -8l-64 -121l-10 9q0 42 -51.5 72t-116.5 30
q-80 0 -132 -55t-52 -146t51.5 -146t132.5 -55q60 0 107 28q61 36 61 74z" />
    <glyph glyph-name="afii10084" unicode="&#x442;" horiz-adv-x="517" 
d="M48 468h-19v141h19q7 -24 34 -24h352q27 0 34 24h19v-144h-19q-7 27 -34 27h-117v-439q0 -17 6 -25.5t12 -8.5v-19h-157v19q21 0 21 34v439h-117q-27 0 -34 -24z" />
    <glyph glyph-name="afii10085" unicode="&#x443;" horiz-adv-x="591" 
d="M53 575v15h167v-15q-23 -5 -23 -20q0 -11 9 -36l113 -312l114 312q8 22 8 33q0 18 -22 23v15h161v-15q-13 0 -20 -9t-22 -47l-145 -387q-28 -74 -65 -103t-103 -29q-37 0 -58 5t-66 23q-26 11 -44 11q-12 0 -21 -12l-10 5l44 147l11 -4q0 -35 38 -56.5t88 -21.5
q16 0 43 9l-156 413q-3 7 -7.5 20t-5.5 16t-5.5 9t-9.5 7.5t-13 3.5z" />
    <glyph glyph-name="afii10086" unicode="&#x444;" horiz-adv-x="674" 
d="M406 13v-13h-144v13q22 9 22 31v100h-100q-181 0 -181 175q0 90 45 131t136 41h100v48q0 24 -22 31v14h144v-14q-23 -8 -23 -31v-48h100q92 0 137 -41t45 -131q0 -175 -182 -175h-100v-100q0 -22 23 -31zM472 395h-89v-154h89q47 0 68.5 16t21.5 62q0 45 -21.5 60.5
t-68.5 15.5zM196 241h88v154h-88q-48 0 -69 -15.5t-21 -60.5q0 -46 21.5 -62t68.5 -16z" />
    <glyph glyph-name="afii10087" unicode="&#x445;" horiz-adv-x="591" 
d="M201 19v-19h-162v19q18 0 30 18l169 264l-146 230q-20 32 -40 36v18h178v-18q-19 -4 -19 -15q0 -9 15 -35l76 -125l70 119q12 22 12 37t-26 19v18h181v-18q-8 -1 -14.5 -5.5t-8.5 -7t-8 -12t-7 -10.5l-142 -225l148 -234q2 -4 8.5 -14.5t9 -14.5t7.5 -10.5t10 -9.5t10 -5
v-19h-176v19q19 2 19 13t-16 38l-86 139l-92 -144q-16 -26 -16 -32q0 -12 16 -14z" />
    <glyph glyph-name="afii10088" unicode="&#x446;" 
d="M569 93h76v-127h-17q-6 34 -40 34h-516v19q6 0 12 8.5t6 25.5v479q0 17 -6 26t-12 9v18h157v-18q-9 0 -15.5 -9t-6.5 -26v-439h245v439q0 17 -6.5 26t-14.5 9v18h160v-18q-9 0 -15.5 -9t-6.5 -26v-439z" />
    <glyph glyph-name="afii10089" unicode="&#x447;" horiz-adv-x="591" 
d="M68 413v119q0 17 -6 26t-12 9v18h157v-18q-9 0 -15.5 -9t-6.5 -26v-89q0 -60 23 -84t95 -24h80v197q0 17 -6.5 26t-14.5 9v18h160v-18q-9 0 -15.5 -9t-6.5 -26v-479q0 -34 24 -34v-19h-159v19q6 0 12 8.5t6 25.5v189h-124q-90 0 -140.5 46.5t-50.5 124.5z" />
    <glyph glyph-name="afii10090" unicode="&#x448;" horiz-adv-x="709" 
d="M696 13v-13h-672v13q23 9 23 31v496q0 25 -23 31v14h154v-14q-24 -6 -24 -31v-444h152v444q0 14 -5 20.5t-18 10.5v14h153v-14q-22 -8 -22 -31v-444h152v444q0 25 -24 31v14h154v-14q-24 -6 -24 -31v-502q0 -16 24 -25z" />
    <glyph glyph-name="afii10091" unicode="&#x449;" horiz-adv-x="768" 
d="M148 540v-444h153v444q0 23 -23 31v14h154v-14q-22 -8 -22 -31v-444h152v444q0 25 -24 31v14h155v-14q-24 -6 -24 -31v-444h46q19 0 27 29h11v-151h-11q-7 26 -27 26h-697v14q23 8 23 31v495q0 25 -23 31v14h154v-14q-24 -6 -24 -31z" />
    <glyph glyph-name="afii10092" unicode="&#x44a;" horiz-adv-x="686" 
d="M53 580h238v-14q-26 -6 -26 -30v-191h174q112 0 167 -42t55 -131q0 -90 -55 -131t-167 -41h-324v13q26 8 26 31v441h-88q-22 0 -29 -27h-13v151h13q4 -17 10.5 -23t18.5 -6zM425 249h-160v-154h160q54 0 82 14q28 13 28 63q0 46 -27 61.5t-83 15.5z" />
    <glyph glyph-name="afii10093" unicode="&#x44b;" horiz-adv-x="703" 
d="M17 571v14h151v-14q-23 -7 -23 -31v-192h150q96 0 143.5 -42t47.5 -132q0 -91 -47.5 -132t-143.5 -41h-278v13q23 9 23 31v495q0 22 -23 31zM282 251h-137v-154h137q47 0 70 13q25 13 25 64q0 46 -23 61.5t-72 15.5zM686 14v-13h-151v13q23 9 23 31v495q0 23 -23 31v14
h151v-14q-22 -8 -22 -31v-495q0 -22 22 -31z" />
    <glyph glyph-name="afii10094" unicode="&#x44c;" horiz-adv-x="526" 
d="M19 573v14h150v-14q-22 -8 -22 -31v-192h174q96 0 143 -42.5t47 -132.5q0 -91 -47 -132t-143 -41h-302v13q22 8 22 31v496q0 23 -22 31zM308 253h-161v-155h161q47 0 70 13q25 15 25 64q0 46 -23 62t-72 16z" />
    <glyph glyph-name="afii10095" unicode="&#x44d;" horiz-adv-x="555" 
d="M16 87l64 120l8 -7q0 -39 59 -74q44 -28 103 -28q70 0 118 43.5t58 118.5h-178q-16 0 -24 -27h-10v145h10q5 -26 24 -26h175q-13 67 -60.5 106.5t-112.5 39.5q-63 0 -112.5 -29.5t-49.5 -72.5l-8 -8l-64 120l9 8q7 -10 16 -10q10 0 27 14q52 46 99 60q45 15 95 15
q119 0 193 -79.5t74 -217.5q0 -140 -75.5 -219t-190.5 -79q-48 0 -80.5 9.5t-70.5 34.5q-69 46 -72 46q-7 0 -15 -11z" />
    <glyph glyph-name="afii10096" unicode="&#x44e;" horiz-adv-x="700" 
d="M155 13v-13h-148v13q22 10 22 31v497q0 25 -22 31v14h148v-14q-23 -6 -23 -31v-195h98q11 114 70.5 182t151.5 68q102 0 164.5 -85t62.5 -222q0 -129 -63 -213.5t-164 -84.5q-94 0 -153 71t-70 189h-97v-207q0 -22 23 -31zM452 496q-55 0 -87 -59.5t-32 -139.5
q0 -81 32 -141t87 -60q56 0 88 59.5t32 138.5q0 85 -31 143.5t-89 58.5z" />
    <glyph glyph-name="afii10097" unicode="&#x44f;" horiz-adv-x="538" 
d="M522 13v-13h-142v13q22 9 22 31v195h-122l-92 -172q-16 -32 -16 -38q0 -11 17 -16v-13h-166v13q6 1 11.5 2.5t10 5.5t8 7t8 10.5t7 12t8.5 15t9 16.5l88 157q-124 29 -124 172q0 88 41.5 131t147.5 43h284v-14q-21 -8 -21 -31v-496q0 -22 21 -31zM248 329h154v160h-154
q-56 0 -78 -17.5t-22 -60.5q0 -42 22.5 -62t77.5 -20z" />
    <glyph glyph-name="afii10071" unicode="&#x451;" horiz-adv-x="490" 
d="M322 258h-191v-162h302q17 0 25 28h10v-151h-10q-4 16 -9.5 21.5t-15.5 5.5h-424v13q21 9 21 31v497q0 23 -21 31v14h416q18 0 24 28h11v-152h-11q-5 28 -24 28h-294v-139h191q19 0 24 26h12v-147h-12q-6 28 -24 28zM172 706q20 0 33 -13t13 -32q0 -17 -14 -29.5
t-32 -12.5q-17 0 -30.5 13t-13.5 31t13 30.5t31 12.5zM308 706q18 1 31.5 -11.5t13.5 -30.5q0 -20 -12.5 -32.5t-32.5 -12.5q-18 0 -31 13t-13 31q0 17 13 30t31 13z" />
    <glyph glyph-name="afii10099" unicode="&#x452;" 
d="M434 492h-117v-155q56 28 125 28q77 0 128.5 -52t51.5 -124q0 -86 -44.5 -137.5t-115.5 -51.5h-48v119h19q1 -9 7 -13.5t13 -4.5q52 0 52 88q0 39 -23.5 62t-68.5 23q-55 0 -96 -27v-194q0 -17 6 -25.5t12 -8.5v-19h-157v19q21 0 21 34v439h-117q-27 0 -34 -24h-19v141
h19q7 -24 34 -24h352q27 0 34 24h19v-144h-19q-7 27 -34 27z" />
    <glyph glyph-name="afii10100" unicode="&#x453;" horiz-adv-x="500" 
d="M217 19v-19h-157v19q3 0 6.5 3t7 11.5t3.5 19.5v479q0 17 -6.5 26t-13.5 9v18h357q29 0 35 24h18v-141h-18q-7 24 -35 24h-220v-439q0 -34 23 -34zM420 823l-172 -186h-91l117 186h146z" />
    <glyph glyph-name="afii10101" unicode="&#x454;" horiz-adv-x="591" 
d="M447 170l11 7l87 -109l-6 -9q-8 2 -15 2t-22.5 -10.5t-34 -23t-56.5 -23t-85 -10.5q-124 0 -202.5 83.5t-78.5 215.5q0 131 78.5 215.5t202.5 84.5q64 0 118 -28q9 -4 24.5 -12.5t24 -12t14.5 -3.5q16 0 25 8l9 -5l-81 -136l-13 7l3 15q0 33 -39.5 53.5t-81.5 20.5
q-60 0 -105.5 -39t-60.5 -113h163q17 0 24 6.5t10 23.5h19v-152h-19q-3 17 -10 23t-24 6h-168q6 -76 50.5 -123t125.5 -47q39 0 78 20t39 48q0 10 -4 17z" />
    <glyph glyph-name="afii10102" unicode="&#x455;" horiz-adv-x="591" 
d="M511 556l10 -5l-69 -131l-13 6q0 34 -45.5 56.5t-115.5 22.5q-54 0 -83 -20.5t-29 -56.5q0 -24 19.5 -40t50.5 -25t68.5 -16.5t74.5 -20t68 -31t50.5 -54t19.5 -84.5q0 -72 -61 -117.5t-150 -45.5q-49 0 -91 9t-64.5 19.5t-42 19.5t-27.5 9q-7 0 -13 -6.5t-7 -7.5l-16 6
l72 143l19 -10q-1 -2 -2.5 -5.5t-2.5 -6.5t-1 -6q0 -30 56 -54t119 -24q58 0 88.5 23t30.5 65q0 30 -36 46t-87.5 26t-103.5 25t-88 54.5t-36 103.5q0 77 56.5 123.5t159.5 46.5q41 0 87.5 -12t77.5 -24t34 -12q5 0 23 11z" />
    <glyph glyph-name="afii10103" unicode="&#x456;" horiz-adv-x="370" 
d="M271 19v-19h-173v19q28 0 28 34v479q0 35 -28 35v18h173v-18q-28 0 -28 -35v-479q0 -34 28 -34z" />
    <glyph glyph-name="afii10104" unicode="&#x457;" horiz-adv-x="370" 
d="M271 19v-19h-173v19q28 0 28 34v479q0 35 -28 35v18h173v-18q-28 0 -28 -35v-479q0 -34 28 -34zM16 806h122v-133h-122v133zM231 806h123v-133h-123v133z" />
    <glyph glyph-name="afii10105" unicode="&#x458;" horiz-adv-x="443" 
d="M199 567v18h173v-18q-29 0 -29 -35v-380q0 -75 -45.5 -116.5t-124.5 -41.5q-47 0 -93 21q-10 4 -20 10t-15.5 9t-7.5 3q-9 0 -24 -13l-10 5l45 139l16 -6q4 -33 28 -55t57 -22q34 0 55.5 15.5t21.5 45.5v386q0 35 -27 35z" />
    <glyph glyph-name="afii10106" unicode="&#x459;" horiz-adv-x="885" 
d="M81 567v18h456v-19q-24 0 -24 -34v-179h110q109 0 163 -49.5t54 -131.5q0 -172 -217 -172h-245v19q6 0 12 8.5t6 25.5v439h-180v-230q0 -262 -160 -262h-48v119h19q1 -18 14 -18q58 0 58 155v276q0 17 -6 26t-12 9zM728 176q0 46 -27.5 65t-95.5 19h-92v-167h92
q68 0 95.5 19t27.5 64z" />
    <glyph glyph-name="afii10107" unicode="&#x45a;" horiz-adv-x="945" 
d="M679 0h-245v19q6 0 12 8.5t6 25.5v207h-245v-207q0 -34 26 -34v-19h-161v19q6 0 12 8.5t6 25.5v479q0 17 -6 26t-12 9v18h157v-18q-9 0 -15.5 -9t-6.5 -26v-179h245v179q0 17 -6.5 26t-14.5 9v18h162v-19q-24 0 -24 -34v-179h110q109 0 163 -49.5t54 -131.5
q0 -172 -217 -172zM784 176q0 46 -27.5 65t-95.5 19h-92v-167h92q68 0 95.5 19t27.5 64z" />
    <glyph glyph-name="afii10108" unicode="&#x45b;" 
d="M640 18v-18h-157v18q9 0 15.5 9t6.5 26v95q0 60 -23 84t-95 24h-70v-203q0 -17 6 -25.5t12 -8.5v-19h-157v19q21 0 21 34v439h-117q-27 0 -34 -24h-19v141h19q7 -24 34 -24h352q27 0 34 24h19v-144h-19q-7 27 -34 27h-117v-143h114q90 0 140.5 -46.5t50.5 -124.5v-125
q0 -17 6 -26t12 -9z" />
    <glyph glyph-name="afii10109" unicode="&#x45c;" horiz-adv-x="591" 
d="M239 19v-19h-167v19q26 0 26 34v479q0 35 -26 35v18h165v-18q-9 0 -15.5 -9t-6.5 -26v-183h2l167 176l9 9l7.5 7.5t5 5.5t3.5 5.5t1 4.5q0 7 -16 10v18h175v-18q-18 -4 -33 -19l-200 -198l185 -278q28 -42 56 -53v-19h-175v19q21 0 21 10q0 9 -19 39l-134 214l-55 -53
v-176q0 -34 24 -34zM510 823l-172 -186h-91l117 186h146z" />
    <glyph glyph-name="afii10110" unicode="&#x45e;" horiz-adv-x="556" 
d="M187 532l105 -221h2l100 222q7 14 7 21q0 13 -25 13v18h162v-18q-26 -5 -33 -20l-217 -482q-11 -22 -11 -32q0 -14 20 -14v-19h-173v19q14 2 31 14t27 35l53 116l-151 315q-28 58 -61 68v18h178v-18q-25 0 -25 -9q0 -4 11 -26zM330 787h125v-21q0 -55 -48 -91.5
t-117 -36.5q-70 0 -118 36.5t-48 91.5v21h126v-18q-10 -1 -15 -7t-5 -11q0 -14 18 -22.5t42 -8.5q23 0 42.5 8.5t19.5 22.5q0 6 -6 11.5t-16 6.5v18z" />
    <glyph glyph-name="afii10193" unicode="&#x45f;" 
d="M593 19v-19h-202v-85q0 -34 26 -34v-19h-169v19q26 0 26 34v85h-202v19q6 0 12 8.5t6 25.5v479q0 17 -6 26t-12 9v18h157v-18q-9 0 -15.5 -9t-6.5 -26v-439h245v439q0 17 -6.5 26t-14.5 9v18h160v-18q-9 0 -15.5 -9t-6.5 -26v-479q0 -34 24 -34z" />
    <glyph glyph-name="afii10050" unicode="&#x490;" horiz-adv-x="565" 
d="M267 19v-19h-222v19q26 3 34.5 10t8.5 24v593q0 18 -8.5 25t-36.5 10v19h441q33 0 42 44h18v-180h-18q-3 14 -12 19t-30 5h-263v-535q0 -17 8.5 -24t37.5 -10z" />
    <glyph glyph-name="afii10098" unicode="&#x491;" horiz-adv-x="517" 
d="M230 19v-19h-157v19q3 0 6.5 3t7 11.5t3.5 19.5v479q0 17 -6.5 26t-13.5 9v18h357q29 0 35 44h18v-161h-18q-7 24 -35 24h-220v-439q0 -34 23 -34z" />
    <glyph glyph-name="endash" unicode="&#x2013;" 
d="M0 339h665v-93h-665v93z" />
    <glyph glyph-name="emdash" unicode="&#x2014;" horiz-adv-x="1330" 
d="M0 339h1330v-93h-1330v93z" />
    <glyph glyph-name="quoteleft" unicode="&#x2018;" horiz-adv-x="370" 
d="M293 721v-43q-56 -19 -96 -58t-40 -91q12 3 25 3q44 0 69.5 -22.5t25.5 -57.5q0 -44 -25 -70t-70 -26q-43 0 -74 36.5t-31 86.5q0 88 62 150t154 92z" />
    <glyph glyph-name="quoteright" unicode="&#x2019;" horiz-adv-x="370" 
d="M77 343v43q55 19 95.5 58t40.5 91q-12 -3 -25 -3q-44 0 -69.5 22.5t-25.5 57.5q0 44 25 70t70 26q43 0 74 -36.5t31 -86.5q0 -88 -62 -150t-154 -92z" />
    <glyph glyph-name="quotesinglbase" unicode="&#x201a;" horiz-adv-x="370" 
d="M66 -190v43q56 19 96 58t40 89q-4 0 -12 -0.5t-13 -0.5q-44 0 -69.5 21.5t-25.5 56.5q0 45 25 70.5t70 25.5q43 0 74 -36t31 -86q0 -86 -62 -148.5t-154 -92.5z" />
    <glyph glyph-name="quotedblleft" unicode="&#x201c;" 
d="M278 721v-43q-55 -19 -95.5 -58t-40.5 -91q12 3 26 3q43 0 68.5 -22.5t25.5 -57.5q0 -44 -25 -70t-69 -26t-74.5 36t-30.5 87q0 88 61.5 150t153.5 92zM598 721v-43q-55 -19 -95 -58t-40 -91q12 3 25 3q44 0 69.5 -22.5t25.5 -57.5q0 -44 -25 -70t-70 -26q-43 0 -74 36.5
t-31 86.5q0 88 61.5 150t153.5 92z" />
    <glyph glyph-name="quotedblright" unicode="&#x201d;" 
d="M66 343v43q56 19 96 58t40 91q-12 -3 -25 -3q-44 0 -69.5 22.5t-25.5 57.5q0 44 25 70t70 26q43 0 74 -36.5t31 -86.5q0 -88 -62 -150t-154 -92zM387 343v43q55 19 95.5 58t40.5 91q-12 -3 -26 -3q-43 0 -68.5 22.5t-25.5 57.5q0 44 25 70t69 26t74.5 -36t30.5 -87
q0 -88 -61.5 -150t-153.5 -92z" />
    <glyph glyph-name="quotedblbase" unicode="&#x201e;" 
d="M66 -190v43q56 19 96 58t40 89q-4 0 -12 -0.5t-13 -0.5q-44 0 -69.5 21.5t-25.5 56.5q0 45 25 70.5t70 25.5q43 0 74 -36t31 -86q0 -86 -62 -148.5t-154 -92.5zM387 -190v43q55 20 95.5 58.5t40.5 88.5q-4 0 -12.5 -0.5t-13.5 -0.5q-43 0 -68.5 22t-25.5 56q0 44 25 70
t69 26t74.5 -36t30.5 -86q0 -86 -62 -148.5t-153 -92.5z" />
    <glyph glyph-name="dagger" unicode="&#x2020;" 
d="M355 -139h-45q-21 238 -51 394q29 68 54 176l-219 -51v139l219 -51l-54 232h147l-54 -232l219 51v-139l-219 51q25 -108 54 -176q-30 -156 -51 -394z" />
    <glyph glyph-name="bullet" unicode="&#x2022;" 
d="M157 350q0 73 51 123.5t124 50.5q74 0 124.5 -50.5t50.5 -123.5t-50.5 -124.5t-124.5 -51.5q-73 0 -124 51.5t-51 124.5z" />
    <glyph glyph-name="ellipsis" unicode="&#x2026;" horiz-adv-x="1330" 
d="M132 82q0 39 26 65t64 26t64.5 -26t26.5 -65q0 -38 -26 -63t-65 -25q-38 0 -64 25t-26 63zM575 82q0 39 26 65t64 26t64 -26t26 -65q0 -38 -26 -63t-64 -25t-64 25t-26 63zM1017 82q0 39 26.5 65t64.5 26t64 -26t26 -65q0 -38 -26 -63t-64 -25q-39 0 -65 25t-26 63z" />
    <glyph glyph-name="perthousand" unicode="&#x2030;" horiz-adv-x="1720" 
d="M654 142q0 98 67.5 164t165.5 66t165.5 -66t67.5 -164t-67.5 -163t-165.5 -65t-165.5 65t-67.5 163zM761 142q0 -55 34.5 -89t91.5 -34t91.5 34t34.5 89t-34.5 89.5t-91.5 34.5t-91.5 -34.5t-34.5 -89.5zM61 541q0 98 67.5 164t165.5 66t165.5 -66t67.5 -164t-67.5 -164
t-165.5 -66t-165.5 66t-67.5 164zM168 541q0 -55 34.5 -89t91.5 -34t91.5 34t34.5 89t-34.5 89.5t-91.5 34.5t-91.5 -34.5t-34.5 -89.5zM283 -86l524 857h85l-524 -857h-85zM1194 142q0 98 67.5 164t165.5 66t165.5 -66t67.5 -164t-67.5 -163t-165.5 -65t-165.5 65
t-67.5 163zM1301 142q0 -55 34.5 -89t91.5 -34t91.5 34t34.5 89t-34.5 89.5t-91.5 34.5t-91.5 -34.5t-34.5 -89.5z" />
    <glyph glyph-name="guilsinglleft" unicode="&#x2039;" horiz-adv-x="444" 
d="M359 98h-117l-157 195l157 194h117l-160 -194z" />
    <glyph glyph-name="guilsinglright" unicode="&#x203a;" horiz-adv-x="444" 
d="M85 487h117l157 -194l-157 -195h-117l160 195z" />
    <glyph glyph-name="Euro" unicode="&#x20ac;" 
d="M604 650l7 -96h-24q-18 110 -155 110q-96 0 -142 -62.5t-59 -178.5h314l-20 -44h-297q0 -5 -0.5 -16t-0.5 -16q0 -23 1 -31h267l-21 -44h-243q9 -113 61.5 -174.5t140.5 -61.5q59 0 101.5 27t52.5 84h24l-7 -92q-58 -60 -197 -60q-273 0 -304 277h-80l21 44h52
q-2 18 -2 33q0 3 0.5 14.5t0.5 15.5h-72l21 44h56q19 138 90.5 211.5t216.5 73.5q139 0 197 -58z" />
    <glyph glyph-name="afii61352" unicode="&#x2116;" horiz-adv-x="1085" 
d="M251 19v-19h-181v19q18 3 24.5 10t6.5 24v593q0 17 -5.5 24.5t-19.5 10.5v19h219v-19q-24 -1 -24 -12q0 -5 18 -37l226 -403h2v417q0 17 -6 24.5t-23 10.5v19h181v-19q-17 -3 -23 -10.5t-6 -24.5v-593q0 -19 5 -25t19 -9v-19h-195v19q26 4 26 18q0 4 -17 36l-252 440h-3
v-460q0 -16 6 -23.5t22 -10.5zM710 287q0 71 46.5 117t118.5 46t118.5 -46t46.5 -117t-46.5 -117t-118.5 -46t-118.5 46t-46.5 117zM801 287q0 -39 21 -62t53 -23q30 0 51.5 23.5t21.5 61.5t-21.5 61.5t-51.5 23.5q-32 0 -53 -23t-21 -62zM710 93h330v-93h-330v93z" />
    <glyph glyph-name="trademark" unicode="&#x2122;" horiz-adv-x="1051" 
d="M318 676h-47v-309q0 -33 6.5 -39.5t43.5 -10.5v-24h-187v24q39 4 45.5 10.5t6.5 39.5v309h-45q-51 0 -67 -64h-21v88h351v-88h-21q-16 64 -65 64zM857 593l-149 -300h-11l-144 300h-2v-209q0 -38 9 -51t42 -16v-24h-134v24q35 3 44 16t9 51v236q0 21 -22.5 38.5
t-46.5 17.5v24h135l144 -297l155 297h111v-24q-31 -1 -42 -13t-11 -38v-258q0 -33 7 -39.5t46 -10.5v-24h-187v24q36 4 42.5 10.5t6.5 39.5v226v-1z" />
    <glyph glyph-name="Delta" unicode="&#x2206;" horiz-adv-x="667" 
d="M2 1l353 688l310 -688h-663zM316 443l-186 -361h351z" />
    <glyph glyph-name="uni2219" unicode="&#x2219;" horiz-adv-x="424" 
d="M132 342q0 35 25 59.5t59 24.5t59 -24.5t25 -59.5t-25 -59.5t-59 -24.5t-59 24.5t-25 59.5z" />
    <glyph glyph-name="radical" unicode="&#x221a;" horiz-adv-x="549" 
d="M343 227l121 690l75 -9l-164 -944l-262 493l-96 -42l-33 63l182 82z" />
    <glyph glyph-name="infinity" unicode="&#x221e;" horiz-adv-x="839" 
d="M773 266q0 -63 -46 -116.5t-112 -53.5q-97 -1 -198 100q-96 -99 -196 -100q-67 0 -113.5 53t-46.5 117q0 68 49 118.5t118 50.5q47 0 84.5 -21t105.5 -81q64 60 102.5 81t85.5 21q69 0 118 -50.5t49 -118.5zM673 260q0 26 -18 50t-49 24q-8 0 -15 -0.5t-14 -2.5
t-11.5 -3.5t-11.5 -6t-10.5 -7t-12.5 -10t-13 -11t-15 -14t-17 -15.5q42 -42 64 -56t56 -14q26 0 46.5 19t20.5 47zM348 264q-37 33 -49.5 43t-31 18.5t-39.5 8.5q-31 0 -49 -24.5t-18 -49.5q0 -29 22 -47.5t50 -18.5q33 0 54 14t61 56z" />
    <glyph glyph-name="approxequal" unicode="&#x2248;" horiz-adv-x="549" 
d="M485 394l69 -37q-38 -54 -98 -75t-113 -8l-150 36q-20 5 -37 4.5t-28 -3t-23 -10.5t-17 -12.5t-14.5 -15.5t-11.5 -13l-76 40q98 108 228 79l151 -34q29 -7 66 6q26 10 54 43zM485 270l69 -38q-38 -53 -97.5 -73.5t-113.5 -8.5l-150 35q-17 4 -31.5 4.5t-26.5 -2.5
t-21 -6.5t-17.5 -10.5t-13 -11.5t-12 -13t-9.5 -10.5l-76 40q99 110 228 80l151 -35q27 -7 66 7q28 11 54 43z" />
    <glyph glyph-name="notequal" unicode="&#x2260;" horiz-adv-x="798" 
d="M388 223h304v-93h-377l-110 -136h-97l110 136h-112v93h185l111 139h-296v93h370l84 106h97l-84 -106h119v-93h-193z" />
    <glyph glyph-name="lessequal" unicode="&#x2264;" horiz-adv-x="798" 
d="M692 640l-467 -207l467 -208v-93l-586 261v79l586 261v-93zM106 0v87h586v-87h-586z" />
    <glyph glyph-name="greaterequal" unicode="&#x2265;" horiz-adv-x="798" 
d="M105 733l586 -261v-79l-586 -261v93l467 208l-467 207v93zM105 87h586v-87h-586v87z" />
    <glyph glyph-name="_189" horiz-adv-x="1000" 
 />
    <glyph glyph-name="_190" horiz-adv-x="1000" 
 />
    <glyph glyph-name="_191" horiz-adv-x="1000" 
 />
    <glyph glyph-name="_218" horiz-adv-x="1000" 
 />
    <glyph glyph-name="_219" horiz-adv-x="1000" 
 />
    <glyph glyph-name="_220" horiz-adv-x="1000" 
 />
    <glyph glyph-name="nbspace" 
 />
    <glyph glyph-name="hyphenminus" horiz-adv-x="443" 
d="M64 348h314v-111h-314v111z" />
    </font>
</defs>
</svg>
